<?xml version="1.0" encoding="UTF-8"?>
<svg xmlns="http://www.w3.org/2000/svg" id="a" width="865.76" height="682.89" viewBox="0 0 865.76 682.89">
  <g>
    <path d="M554.29,428.17s4.07,8,2.38,8.33-5-6.57-5-6.57l-9.58-2.54,7.29-1,4.91,1.78Z" fill="#f2b3c1"></path>
    <path d="M556.57,437.01c-1.79,0-4.18-4.46-5.25-6.66l-11.77-3.12,9.88-1.36,5.21,1.89,.09,.18c.82,1.61,3.44,7,2.7,8.52-.14,.28-.38,.47-.67,.52-.06,.01-.13,.02-.2,.02Zm-11.94-9.46l7.39,1.96,.1,.21c1.67,3.49,3.74,6.46,4.45,6.29,.32-.49-.89-3.95-2.64-7.44l-4.61-1.67-4.7,.64Z" fill="#002346"></path>
  </g>
  <g>
    <path d="M551.78,422.73s6-1.74,7.58,1.31,6.19,12.07,4.35,13.17-3.34-2.24-3.34-2.24l-8.59-12.24Z" fill="#f2b3c1"></path>
    <path d="M562.95,437.93c-.19,0-.38-.03-.58-.09-1.43-.45-2.36-2.44-2.46-2.67l-8.95-12.73,.67-.2c.26-.07,6.42-1.81,8.16,1.56,5.72,11.04,5.23,13.19,4.16,13.83-.33,.19-.67,.29-1.02,.29Zm-10.34-14.89l8.17,11.64c.27,.58,1.04,1.94,1.9,2.21,.27,.08,.51,.05,.78-.11,.15-.09,1.32-1.21-4.54-12.51-1.08-2.09-4.76-1.55-6.3-1.23Z" fill="#002346"></path>
  </g>
  <g>
    <path d="M532.79,432.24l11,5.26s8.17,1.77,11,.06-7-5.05-7-5.05c0,0-6.55-3-4.55-3.79s9.47-.89,10.91,.31,5.1,9.16,7.9,8.61-1.06-4.81-2-6.47-3-8.34-7.57-8.49c-3.57-.12-13.66,.66-17.92,1-1.23,.1-2.43-.36-3.27-1.26l-12.9-13.68s-6.55-1.81-10.23,.11c-5.12,2.68-7.83,7.31-5.45,10.87,6.05,9.01,30.08,12.52,30.08,12.52Z" fill="#f2b3c1"></path>
    <path d="M550.76,438.8c-3.26,0-6.85-.76-7.07-.81l-.11-.04-10.93-5.23c-1.75-.26-24.35-3.8-30.35-12.73-.92-1.37-1.18-2.97-.76-4.62,.67-2.62,3.06-5.23,6.4-6.97,3.81-1.99,10.32-.23,10.59-.15l.13,.04,13,13.78c.74,.79,1.78,1.19,2.87,1.1,4.21-.34,14.37-1.12,17.97-1,4.1,.13,6.26,4.95,7.42,7.54,.23,.51,.42,.93,.57,1.2,.19,.33,.52,.8,.87,1.3,1.22,1.73,2.6,3.68,2.08,4.96-.14,.34-.47,.78-1.29,.94-2.26,.46-4.6-3.21-6.49-6.15-.74-1.15-1.43-2.23-1.83-2.56-1.21-1.01-8.41-1.02-10.41-.23-.01,0-.02,0-.03,.01,.29,.54,2.36,1.83,4.61,2.86,1.74,.59,7.59,2.72,7.8,4.67,.04,.35-.06,.85-.75,1.27-1.01,.61-2.61,.81-4.29,.81Zm-6.8-1.78c2.27,.49,8.42,1.41,10.58,.11,.11-.06,.28-.19,.27-.3-.1-.9-3.8-2.7-7.17-3.85-2.01-.92-5.3-2.62-5.27-3.87,0-.22,.1-.63,.7-.86,1.93-.76,9.73-1.01,11.41,.39,.51,.43,1.18,1.47,2.03,2.79,1.54,2.4,3.92,6.02,5.45,5.71,.46-.09,.54-.27,.56-.33,.31-.78-1.12-2.8-1.97-4.01-.38-.54-.71-1.01-.92-1.39-.17-.29-.37-.74-.61-1.29-1.07-2.39-3.07-6.84-6.54-6.95-3.53-.11-13.67,.66-17.86,1-1.38,.12-2.72-.4-3.68-1.41l-12.8-13.58c-.93-.24-6.55-1.55-9.73,.11-3.09,1.62-5.29,3.98-5.89,6.33-.35,1.38-.14,2.67,.62,3.81,5.86,8.72,29.5,12.27,29.74,12.3l.14,.04,10.95,5.23Z" fill="#002346"></path>
  </g>
  <g>
    <path d="M479.49,352.5c-1.24-5.73,8.15-15.8,8.15-15.8,6.21,.09,11.17,6.52,14.7,13.39,4.18,8.23,6.48,17.28,6.74,26.5,.06,1.73,.13,3.51,.26,5.33,.76,10.48,5.98,20.16,14.33,26.55l.09,.07c-2,.42-6,.5-10.72,4-5,3.8-8.52,12.76-7.15,17.19-3-3-9.6-10-12.75-16.77,0,0-5.6-23.38-13.65-60.46Z" fill="#74f676"></path>
    <path d="M506.96,431.51l-1.43-1.43c-3.48-3.48-9.77-10.3-12.85-16.91l-.03-.09c-.06-.23-5.69-23.81-13.65-60.47h0c-1.28-5.92,7.88-15.83,8.27-16.25l.15-.16h.22c5.43,.08,10.52,4.68,15.14,13.66,4.19,8.24,6.54,17.48,6.8,26.71,.05,1.44,.12,3.34,.26,5.31,.75,10.34,5.9,19.89,14.13,26.19l.95,.73-1.06,.22c-.34,.07-.73,.13-1.17,.2-2.19,.34-5.51,.86-9.35,3.71-5.05,3.84-8.21,12.63-6.97,16.64l.6,1.93Zm-13.35-18.72c2.71,5.8,7.97,11.79,11.5,15.43-.37-5,3.12-12.66,7.62-16.09,4.05-3,7.65-3.56,9.8-3.9,0,0,.02,0,.03,0-7.99-6.48-12.97-16-13.72-26.28-.14-1.98-.22-3.9-.27-5.35-.25-9.09-2.57-18.18-6.69-26.29-3.01-5.86-7.88-12.86-14.04-13.11-1.19,1.32-8.96,10.17-7.88,15.19h0c7.78,35.84,13.34,59.17,13.64,60.4Z" fill="#002346"></path>
  </g>
  <path d="M524.74,320.33c-.19,0-.37-.11-.46-.29l-.36-.8c-.11-.25,0-.55,.25-.66,.25-.11,.55,0,.66,.25l.36,.8c.11,.25,0,.55-.25,.66-.07,.03-.14,.04-.21,.04Zm-1.6-3.54c-.19,0-.37-.11-.46-.29l-1.24-2.73c-.11-.25,0-.55,.25-.66,.25-.11,.55,0,.66,.25l1.24,2.73c.11,.25,0,.55-.25,.66-.07,.03-.14,.04-.21,.04Zm-2.47-5.47c-.19,0-.37-.11-.46-.29l-1.24-2.73c-.11-.25,0-.55,.25-.66,.25-.11,.55,0,.66,.25l1.24,2.73c.11,.25,0,.55-.25,.66-.07,.03-.14,.04-.21,.04Zm-2.47-5.47c-.19,0-.37-.11-.46-.29l-1.24-2.73c-.11-.25,0-.55,.25-.66,.25-.11,.55,0,.66,.25l1.24,2.73c.11,.25,0,.55-.25,.66-.07,.03-.14,.04-.21,.04Zm-2.47-5.47c-.19,0-.37-.11-.46-.29l-1.23-2.73c-.11-.25,0-.55,.25-.66,.25-.11,.55,0,.66,.25l1.23,2.73c.11,.25,0,.55-.25,.66-.07,.03-.14,.04-.21,.04Zm-2.47-5.47c-.19,0-.37-.11-.46-.29l-1.23-2.73c-.11-.25,0-.55,.25-.66,.25-.11,.55,0,.66,.25l1.23,2.73c.11,.25,0,.55-.25,.66-.07,.03-.14,.04-.21,.04Zm-2.47-5.47c-.19,0-.37-.11-.46-.29l-1.24-2.73c-.11-.25,0-.55,.25-.66,.25-.11,.55,0,.66,.25l1.24,2.73c.11,.25,0,.55-.25,.66-.07,.03-.14,.04-.21,.04Zm-2.47-5.47c-.19,0-.37-.11-.46-.29l-1.24-2.73c-.11-.25,0-.55,.25-.66,.25-.11,.55,0,.66,.25l1.24,2.73c.11,.25,0,.55-.25,.66-.07,.03-.14,.04-.21,.04Zm-2.47-5.47c-.19,0-.37-.11-.46-.29l-1.24-2.73c-.11-.25,0-.55,.25-.66,.25-.11,.55,0,.66,.25l1.24,2.73c.11,.25,0,.55-.25,.66-.07,.03-.14,.04-.21,.04Zm-2.47-5.47c-.19,0-.37-.11-.46-.29l-1.23-2.73c-.11-.25,0-.55,.25-.66,.25-.11,.55,0,.66,.25l1.23,2.73c.11,.25,0,.55-.25,.66-.07,.03-.14,.04-.21,.04Zm-2.47-5.47c-.19,0-.37-.11-.46-.29l-1.23-2.73c-.11-.25,0-.55,.25-.66,.25-.11,.55,0,.66,.25l1.23,2.73c.11,.25,0,.55-.25,.66-.07,.03-.14,.04-.21,.04Zm-2.47-5.47c-.19,0-.37-.11-.46-.29l-1.24-2.73c-.11-.25,0-.55,.25-.66,.25-.11,.55,0,.66,.25l1.24,2.73c.11,.25,0,.55-.25,.66-.07,.03-.14,.04-.21,.04Zm-2.47-5.47c-.19,0-.37-.11-.46-.29l-1.24-2.73c-.11-.25,0-.55,.25-.66,.25-.11,.55,0,.66,.25l1.24,2.73c.11,.25,0,.55-.25,.66-.07,.03-.14,.04-.21,.04Zm-2.47-5.47c-.19,0-.37-.11-.46-.29l-1.24-2.73c-.11-.25,0-.55,.25-.66,.25-.11,.55,0,.66,.25l1.24,2.73c.11,.25,0,.55-.25,.66-.07,.03-.14,.04-.21,.04Zm-2.47-5.47c-.19,0-.37-.11-.46-.29l-1.23-2.73c-.11-.25,0-.55,.25-.66,.25-.11,.55,0,.66,.25l1.23,2.73c.11,.25,0,.55-.25,.66-.07,.03-.14,.04-.21,.04Zm-2.47-5.47c-.19,0-.37-.11-.46-.29l-1.24-2.73c-.11-.25,0-.55,.25-.66,.25-.11,.55,0,.66,.25l1.24,2.73c.11,.25,0,.55-.25,.66-.07,.03-.14,.04-.21,.04Zm-2.47-5.47c-.19,0-.37-.11-.46-.29l-1.24-2.73c-.11-.25,0-.55,.25-.66,.25-.11,.55,0,.66,.25l1.24,2.73c.11,.25,0,.55-.25,.66-.07,.03-.14,.04-.21,.04Zm-2.47-5.47c-.19,0-.37-.11-.46-.29l-1.24-2.73c-.11-.25,0-.55,.25-.66,.25-.11,.55,0,.66,.25l1.24,2.73c.11,.25,0,.55-.25,.66-.07,.03-.14,.04-.21,.04Zm-2.47-5.47c-.19,0-.37-.11-.46-.29l-1.23-2.73c-.11-.25,0-.55,.25-.66,.25-.11,.55,0,.66,.25l1.23,2.73c.11,.25,0,.55-.25,.66-.07,.03-.14,.04-.21,.04Zm-2.47-5.47c-.19,0-.37-.11-.46-.29l-1.23-2.73c-.11-.25,0-.55,.25-.66,.25-.12,.55,0,.66,.25l1.23,2.73c.11,.25,0,.55-.25,.66-.07,.03-.14,.04-.21,.04Zm-2.47-5.47c-.19,0-.37-.11-.46-.29l-1.24-2.73c-.11-.25,0-.55,.25-.66,.25-.11,.55,0,.66,.25l1.24,2.73c.11,.25,0,.55-.25,.66-.07,.03-.14,.04-.21,.04Zm-2.47-5.47c-.19,0-.37-.11-.46-.29l-1.24-2.73c-.11-.25,0-.55,.25-.66,.25-.11,.55,0,.66,.25l1.24,2.73c.11,.25,0,.55-.25,.66-.07,.03-.14,.04-.21,.04Zm-2.47-5.47c-.19,0-.37-.11-.46-.29l-1.24-2.73c-.11-.25,0-.55,.25-.66,.25-.11,.55,0,.66,.25l1.24,2.73c.11,.25,0,.55-.25,.66-.07,.03-.14,.04-.21,.04Zm-2.47-5.47c-.19,0-.37-.11-.46-.29l-1.23-2.73c-.11-.25,0-.55,.25-.66,.25-.11,.55,0,.66,.25l1.23,2.73c.11,.25,0,.55-.25,.66-.07,.03-.14,.04-.21,.04Zm-2.47-5.47c-.19,0-.37-.11-.46-.29l-1.23-2.73c-.11-.25,0-.55,.25-.66,.25-.11,.55,0,.66,.25l1.23,2.73c.11,.25,0,.55-.25,.66-.07,.03-.14,.04-.21,.04Zm-2.47-5.47c-.19,0-.37-.11-.46-.29l-1.24-2.73c-.11-.25,0-.55,.25-.66,.25-.11,.55,0,.66,.25l1.24,2.73c.11,.25,0,.55-.25,.66-.07,.03-.14,.04-.21,.04Zm-2.47-5.47c-.19,0-.37-.11-.46-.29l-1.24-2.73c-.11-.25,0-.55,.25-.66,.25-.11,.55,0,.66,.25l1.24,2.73c.11,.25,0,.55-.25,.66-.07,.03-.14,.04-.21,.04Zm-2.47-5.47c-.19,0-.37-.11-.46-.29l-1.24-2.73c-.11-.25,0-.55,.25-.66,.25-.11,.55,0,.66,.25l1.24,2.73c.11,.25,0,.55-.25,.66-.07,.03-.14,.04-.21,.04Zm-2.47-5.47c-.19,0-.37-.11-.46-.29l-1.23-2.73c-.11-.25,0-.55,.25-.66,.25-.12,.55,0,.66,.25l1.23,2.73c.11,.25,0,.55-.25,.66-.07,.03-.14,.04-.21,.04Zm-2.47-5.47c-.19,0-.37-.11-.46-.29l-1.23-2.73c-.11-.25,0-.55,.25-.66,.25-.11,.55,0,.66,.25l1.23,2.73c.11,.25,0,.55-.25,.66-.07,.03-.14,.04-.21,.04Zm-2.47-5.47c-.19,0-.37-.11-.46-.29l-1.24-2.73c-.11-.25,0-.55,.25-.66,.25-.11,.55,0,.66,.25l1.24,2.73c.11,.25,0,.55-.25,.66-.07,.03-.14,.04-.21,.04Zm-2.47-5.47c-.19,0-.37-.11-.46-.29l-1.24-2.73c-.11-.25,0-.55,.25-.66,.25-.11,.55,0,.66,.25l1.24,2.73c.11,.25,0,.55-.25,.66-.07,.03-.14,.04-.21,.04Zm-2.47-5.47c-.19,0-.37-.11-.46-.29l-1.24-2.73c-.11-.25,0-.55,.25-.66,.25-.11,.55,0,.66,.25l1.24,2.73c.11,.25,0,.55-.25,.66-.07,.03-.14,.04-.21,.04Z" fill="#002346"></path>
  <path d="M617.62,323.64c-.21,0-.4-.13-.47-.33l-.6-1.67c-.09-.26,.04-.55,.3-.64,.26-.09,.55,.04,.64,.3l.6,1.67c.09,.26-.04,.55-.3,.64-.06,.02-.11,.03-.17,.03Zm-1.61-4.49c-.21,0-.4-.13-.47-.33l-1.02-2.82c-.09-.26,.04-.55,.3-.64,.26-.09,.55,.04,.64,.3l1.02,2.82c.09,.26-.04,.55-.3,.64-.06,.02-.11,.03-.17,.03Zm-2.03-5.65c-.21,0-.4-.13-.47-.33l-1.02-2.82c-.09-.26,.04-.55,.3-.64,.26-.09,.55,.04,.64,.3l1.02,2.82c.09,.26-.04,.55-.3,.64-.06,.02-.11,.03-.17,.03Zm-2.03-5.65c-.21,0-.4-.13-.47-.33l-1.01-2.82c-.09-.26,.04-.55,.3-.64,.26-.09,.55,.04,.64,.3l1.01,2.82c.09,.26-.04,.55-.3,.64-.06,.02-.11,.03-.17,.03Zm-2.03-5.65c-.21,0-.4-.13-.47-.33l-1.01-2.82c-.09-.26,.04-.55,.3-.64,.26-.09,.55,.04,.64,.3l1.01,2.82c.09,.26-.04,.55-.3,.64-.06,.02-.11,.03-.17,.03Zm-2.03-5.65c-.21,0-.4-.13-.47-.33l-1.01-2.82c-.09-.26,.04-.55,.3-.64,.26-.09,.55,.04,.64,.3l1.01,2.82c.09,.26-.04,.55-.3,.64-.06,.02-.11,.03-.17,.03Zm-2.03-5.65c-.21,0-.4-.13-.47-.33l-1.01-2.82c-.09-.26,.04-.55,.3-.64,.26-.09,.55,.04,.64,.3l1.01,2.82c.09,.26-.04,.55-.3,.64-.06,.02-.11,.03-.17,.03Zm-2.03-5.65c-.21,0-.4-.13-.47-.33l-1.01-2.82c-.09-.26,.04-.55,.3-.64,.26-.09,.55,.04,.64,.3l1.01,2.82c.09,.26-.04,.55-.3,.64-.06,.02-.11,.03-.17,.03Z" fill="#002346"></path>
  <path d="M500.61,328.63c-.1,0-.2-.03-.29-.09l-.81-.58c-.22-.16-.28-.47-.12-.7,.16-.23,.47-.28,.7-.12l.81,.58c.22,.16,.28,.47,.12,.7-.1,.14-.25,.21-.41,.21Zm-3.25-2.33c-.1,0-.2-.03-.29-.09l-2.44-1.75c-.22-.16-.28-.47-.12-.7,.16-.23,.47-.28,.7-.12l2.44,1.75c.22,.16,.28,.47,.12,.7-.1,.14-.25,.21-.41,.21Zm-4.88-3.49c-.1,0-.2-.03-.29-.09l-2.44-1.75c-.22-.16-.28-.47-.12-.7,.16-.23,.47-.28,.7-.12l2.44,1.75c.22,.16,.28,.47,.12,.7-.1,.14-.25,.21-.41,.21Zm-4.88-3.5c-.1,0-.2-.03-.29-.09l-2.44-1.75c-.22-.16-.28-.47-.12-.7,.16-.23,.47-.28,.7-.12l2.44,1.75c.22,.16,.28,.47,.12,.7-.1,.14-.25,.21-.41,.21Zm-4.88-3.49c-.1,0-.2-.03-.29-.09l-2.44-1.75c-.22-.16-.28-.47-.12-.7,.16-.23,.47-.28,.7-.12l2.44,1.75c.22,.16,.28,.47,.12,.7-.1,.14-.25,.21-.41,.21Zm-4.88-3.49c-.1,0-.2-.03-.29-.09l-2.44-1.75c-.22-.16-.28-.47-.12-.7,.16-.23,.47-.28,.7-.12l2.44,1.75c.22,.16,.28,.47,.12,.7-.1,.14-.25,.21-.41,.21Zm-4.88-3.5c-.1,0-.2-.03-.29-.09l-2.44-1.75c-.22-.16-.28-.47-.12-.7,.16-.23,.47-.28,.7-.12l2.44,1.75c.22,.16,.28,.47,.12,.7-.1,.14-.25,.21-.41,.21Zm-4.88-3.49c-.1,0-.2-.03-.29-.09l-2.44-1.75c-.22-.16-.28-.47-.12-.7,.16-.23,.47-.28,.7-.12l2.44,1.75c.22,.16,.28,.47,.12,.7-.1,.14-.25,.21-.41,.21Zm-4.88-3.49c-.1,0-.2-.03-.29-.09l-2.44-1.75c-.22-.16-.28-.47-.12-.7,.16-.23,.47-.28,.7-.12l2.44,1.75c.22,.16,.28,.47,.12,.7-.1,.14-.25,.21-.41,.21Zm-4.88-3.5c-.1,0-.2-.03-.29-.09l-2.44-1.75c-.22-.16-.28-.47-.12-.7,.16-.23,.47-.28,.7-.12l2.44,1.75c.22,.16,.28,.47,.12,.7-.1,.14-.25,.21-.41,.21Zm-4.88-3.49c-.1,0-.2-.03-.29-.09l-2.44-1.75c-.22-.16-.28-.47-.12-.7,.16-.23,.47-.28,.7-.12l2.44,1.75c.22,.16,.28,.47,.12,.7-.1,.14-.25,.21-.41,.21Zm-4.88-3.5c-.1,0-.2-.03-.29-.09l-2.44-1.75c-.22-.16-.28-.47-.12-.7,.16-.23,.47-.28,.7-.12l2.44,1.75c.22,.16,.28,.47,.12,.7-.1,.14-.25,.21-.41,.21Zm-4.88-3.49c-.1,0-.2-.03-.29-.09l-2.44-1.75c-.22-.16-.28-.47-.12-.7,.16-.23,.47-.28,.7-.12l2.44,1.75c.22,.16,.28,.47,.12,.7-.1,.14-.25,.21-.41,.21Zm-4.88-3.49c-.1,0-.2-.03-.29-.09l-2.44-1.75c-.22-.16-.28-.47-.12-.7,.16-.23,.47-.28,.7-.12l2.44,1.75c.22,.16,.28,.47,.12,.7-.1,.14-.25,.21-.41,.21Zm-4.88-3.5c-.1,0-.2-.03-.29-.09l-2.44-1.75c-.22-.16-.28-.47-.12-.7,.16-.23,.47-.28,.7-.12l2.44,1.75c.22,.16,.28,.47,.12,.7-.1,.14-.25,.21-.41,.21Zm-4.88-3.49c-.1,0-.2-.03-.29-.09l-2.44-1.75c-.22-.16-.28-.47-.12-.7,.16-.23,.47-.28,.7-.12l2.44,1.75c.22,.16,.28,.47,.12,.7-.1,.14-.25,.21-.41,.21Zm-4.88-3.49c-.1,0-.2-.03-.29-.09l-2.44-1.75c-.22-.16-.28-.47-.12-.7,.16-.23,.47-.28,.7-.12l2.44,1.75c.22,.16,.28,.47,.12,.7-.1,.14-.25,.21-.41,.21Zm-4.88-3.5c-.1,0-.2-.03-.29-.09l-2.44-1.75c-.22-.16-.28-.47-.12-.7,.16-.23,.47-.28,.7-.12l2.44,1.75c.22,.16,.28,.47,.12,.7-.1,.14-.25,.21-.41,.21Zm-4.88-3.49c-.1,0-.2-.03-.29-.09l-2.44-1.75c-.22-.16-.28-.47-.12-.7,.16-.23,.47-.28,.7-.12l2.44,1.75c.22,.16,.28,.47,.12,.7-.1,.14-.25,.21-.41,.21Zm-4.88-3.5c-.1,0-.2-.03-.29-.09l-2.44-1.75c-.22-.16-.28-.47-.12-.7,.16-.23,.47-.28,.7-.12l2.44,1.75c.22,.16,.28,.47,.12,.7-.1,.14-.25,.21-.41,.21Zm-4.88-3.49c-.1,0-.2-.03-.29-.09l-2.44-1.75c-.22-.16-.28-.47-.12-.7,.16-.23,.47-.28,.7-.12l2.44,1.75c.22,.16,.28,.47,.12,.7-.1,.14-.25,.21-.41,.21Zm-4.88-3.49c-.1,0-.2-.03-.29-.09l-2.44-1.75c-.22-.16-.28-.47-.12-.7,.16-.23,.47-.28,.7-.12l2.44,1.75c.22,.16,.28,.47,.12,.7-.1,.14-.25,.21-.41,.21Zm-4.88-3.5c-.1,0-.2-.03-.29-.09l-2.44-1.75c-.22-.16-.28-.47-.12-.7,.16-.23,.47-.28,.7-.12l2.44,1.75c.22,.16,.28,.47,.12,.7-.1,.14-.25,.21-.41,.21Zm-4.88-3.49c-.1,0-.2-.03-.29-.09l-2.44-1.75c-.22-.16-.28-.47-.12-.7,.16-.23,.47-.28,.7-.12l2.44,1.75c.22,.16,.28,.47,.12,.7-.1,.14-.25,.21-.41,.21Zm-4.88-3.49c-.1,0-.2-.03-.29-.09l-2.44-1.75c-.22-.16-.28-.47-.12-.7,.16-.23,.47-.28,.7-.12l2.44,1.75c.22,.16,.28,.47,.12,.7-.1,.14-.25,.21-.41,.21Zm-4.88-3.5c-.1,0-.2-.03-.29-.09l-2.44-1.75c-.22-.16-.28-.47-.12-.7,.16-.23,.47-.28,.7-.12l2.44,1.75c.22,.16,.28,.47,.12,.7-.1,.14-.25,.21-.41,.21Zm-4.88-3.49c-.1,0-.2-.03-.29-.09l-2.44-1.75c-.22-.16-.28-.47-.12-.7,.16-.23,.47-.28,.7-.12l2.44,1.75c.22,.16,.28,.47,.12,.7-.1,.14-.25,.21-.41,.21Zm-4.88-3.5c-.1,0-.2-.03-.29-.09l-2.44-1.75c-.22-.16-.28-.47-.12-.7,.16-.23,.47-.28,.7-.12l2.44,1.75c.22,.16,.28,.47,.12,.7-.1,.14-.25,.21-.41,.21Zm-4.88-3.49c-.1,0-.2-.03-.29-.09l-2.44-1.75c-.22-.16-.28-.47-.12-.7,.16-.23,.47-.28,.7-.12l2.44,1.75c.22,.16,.28,.47,.12,.7-.1,.14-.25,.21-.41,.21Zm-4.88-3.49c-.1,0-.2-.03-.29-.09l-2.44-1.75c-.22-.16-.28-.47-.12-.7,.16-.23,.47-.28,.7-.12l2.44,1.75c.22,.16,.28,.47,.12,.7-.1,.14-.25,.21-.41,.21Zm-4.88-3.5c-.1,0-.2-.03-.29-.09l-2.44-1.75c-.22-.16-.28-.47-.12-.7,.16-.23,.47-.28,.7-.12l2.44,1.75c.22,.16,.28,.47,.12,.7-.1,.14-.25,.21-.41,.21Zm-4.88-3.49c-.1,0-.2-.03-.29-.09l-2.44-1.75c-.22-.16-.28-.47-.12-.7,.16-.23,.47-.28,.7-.12l2.44,1.75c.22,.16,.28,.47,.12,.7-.1,.14-.25,.21-.41,.21Zm-4.88-3.49c-.1,0-.2-.03-.29-.09l-2.44-1.75c-.22-.16-.28-.47-.12-.7,.16-.23,.47-.28,.7-.12l2.44,1.75c.22,.16,.28,.47,.12,.7-.1,.14-.25,.21-.41,.21Zm-4.88-3.5c-.1,0-.2-.03-.29-.09l-2.44-1.75c-.22-.16-.28-.47-.12-.7,.16-.23,.47-.28,.7-.12l2.44,1.75c.22,.16,.28,.47,.12,.7-.1,.14-.25,.21-.41,.21Zm-4.88-3.49c-.1,0-.2-.03-.29-.09l-2.44-1.75c-.22-.16-.28-.47-.12-.7,.16-.23,.47-.28,.7-.12l2.44,1.75c.22,.16,.28,.47,.12,.7-.1,.14-.25,.21-.41,.21Zm-4.88-3.5c-.1,0-.2-.03-.29-.09l-2.44-1.75c-.22-.16-.28-.47-.12-.7,.16-.23,.47-.28,.7-.12l2.44,1.75c.22,.16,.28,.47,.12,.7-.1,.14-.25,.21-.41,.21Zm-4.88-3.49c-.1,0-.2-.03-.29-.09l-2.44-1.75c-.22-.16-.28-.47-.12-.7,.16-.23,.47-.28,.7-.12l2.44,1.75c.22,.16,.28,.47,.12,.7-.1,.14-.25,.21-.41,.21Zm-4.88-3.49c-.1,0-.2-.03-.29-.09l-2.44-1.75c-.22-.16-.28-.47-.12-.7,.16-.23,.47-.28,.7-.12l2.44,1.75c.22,.16,.28,.47,.12,.7-.1,.14-.25,.21-.41,.21Zm-4.88-3.5c-.1,0-.2-.03-.29-.09l-2.44-1.75c-.22-.16-.28-.47-.12-.7,.16-.23,.47-.28,.7-.12l2.44,1.75c.22,.16,.28,.47,.12,.7-.1,.14-.25,.21-.41,.21Zm-4.88-3.49c-.1,0-.2-.03-.29-.09l-2.44-1.75c-.22-.16-.28-.47-.12-.7,.16-.23,.47-.28,.7-.12l2.44,1.75c.22,.16,.28,.47,.12,.7-.1,.14-.25,.21-.41,.21Zm-4.88-3.49c-.1,0-.2-.03-.29-.09l-2.44-1.75c-.22-.16-.28-.47-.12-.7,.16-.23,.47-.28,.7-.12l2.44,1.75c.22,.16,.28,.47,.12,.7-.1,.14-.25,.21-.41,.21Zm-4.88-3.5c-.1,0-.2-.03-.29-.09l-2.44-1.75c-.22-.16-.28-.47-.12-.7,.16-.23,.47-.28,.7-.12l2.44,1.75c.22,.16,.28,.47,.12,.7-.1,.14-.25,.21-.41,.21Z" fill="#002346"></path>
  <path d="M498.84,388.01s-.07,0-.1,0l-1.44-.29c-.27-.05-.45-.32-.39-.59s.33-.44,.59-.39l1.44,.29c.27,.05,.45,.32,.39,.59-.05,.24-.26,.4-.49,.4Zm-4.38-.88s-.07,0-.1,0l-2.94-.59c-.27-.05-.45-.32-.39-.59s.33-.45,.59-.39l2.94,.59c.27,.05,.45,.32,.39,.59-.05,.24-.26,.4-.49,.4Zm-5.88-1.18s-.07,0-.1,0l-2.94-.59c-.27-.05-.45-.32-.39-.59s.33-.45,.59-.39l2.94,.59c.27,.05,.45,.32,.39,.59-.05,.24-.26,.4-.49,.4Zm-5.88-1.18s-.07,0-.1,0l-2.94-.59c-.27-.05-.45-.32-.39-.59s.33-.45,.59-.39l2.94,.59c.27,.05,.45,.32,.39,.59-.05,.24-.26,.4-.49,.4Zm-5.88-1.18s-.07,0-.1,0l-2.94-.59c-.27-.05-.45-.32-.39-.59s.33-.45,.59-.39l2.94,.59c.27,.05,.45,.32,.39,.59-.05,.24-.26,.4-.49,.4Zm-5.88-1.18s-.07,0-.1,0l-2.94-.59c-.27-.05-.45-.32-.39-.59,.05-.27,.33-.45,.59-.39l2.94,.59c.27,.05,.45,.32,.39,.59-.05,.24-.26,.4-.49,.4Zm-5.88-1.18s-.07,0-.1,0l-2.94-.59c-.27-.05-.45-.32-.39-.59,.05-.27,.32-.45,.59-.39l2.94,.59c.27,.05,.45,.32,.39,.59-.05,.24-.26,.4-.49,.4Zm-5.88-1.18s-.07,0-.1,0l-2.94-.59c-.27-.05-.45-.32-.39-.59s.32-.45,.59-.39l2.94,.59c.27,.05,.45,.32,.39,.59-.05,.24-.26,.4-.49,.4Zm-5.88-1.18s-.07,0-.1,0l-2.94-.59c-.27-.05-.45-.32-.39-.59,.05-.27,.33-.45,.59-.39l2.94,.59c.27,.05,.45,.32,.39,.59-.05,.24-.26,.4-.49,.4Zm-5.88-1.18s-.07,0-.1,0l-2.94-.59c-.27-.05-.45-.32-.39-.59s.33-.45,.59-.39l2.94,.59c.27,.05,.45,.32,.39,.59-.05,.24-.26,.4-.49,.4Zm-5.88-1.18s-.07,0-.1,0l-2.94-.59c-.27-.05-.45-.32-.39-.59,.05-.27,.33-.45,.59-.39l2.94,.59c.27,.05,.45,.32,.39,.59-.05,.24-.26,.4-.49,.4Zm-5.88-1.18s-.07,0-.1,0l-2.94-.59c-.27-.05-.45-.32-.39-.59s.32-.45,.59-.39l2.94,.59c.27,.05,.45,.32,.39,.59-.05,.24-.26,.4-.49,.4Zm-5.88-1.18s-.07,0-.1,0l-2.94-.59c-.27-.05-.45-.32-.39-.59s.33-.44,.59-.39l2.94,.59c.27,.05,.45,.32,.39,.59-.05,.24-.26,.4-.49,.4Zm-5.88-1.18s-.07,0-.1,0l-2.94-.59c-.27-.05-.45-.32-.39-.59s.32-.44,.59-.39l2.94,.59c.27,.05,.45,.32,.39,.59-.05,.24-.26,.4-.49,.4Zm-5.88-1.18s-.07,0-.1,0l-2.94-.59c-.27-.05-.45-.32-.39-.59s.33-.44,.59-.39l2.94,.59c.27,.05,.45,.32,.39,.59-.05,.24-.26,.4-.49,.4Zm-5.88-1.18s-.07,0-.1,0l-2.94-.59c-.27-.05-.45-.32-.39-.59s.32-.44,.59-.39l2.94,.59c.27,.05,.45,.32,.39,.59-.05,.24-.26,.4-.49,.4Zm-5.88-1.18s-.07,0-.1,0l-2.94-.59c-.27-.05-.45-.32-.39-.59s.32-.44,.59-.39l2.94,.59c.27,.05,.45,.32,.39,.59-.05,.24-.26,.4-.49,.4Zm-5.88-1.18s-.07,0-.1,0l-2.94-.59c-.27-.05-.45-.32-.39-.59s.32-.45,.59-.39l2.94,.59c.27,.05,.45,.32,.39,.59-.05,.24-.26,.4-.49,.4Zm-5.88-1.18s-.07,0-.1,0l-2.94-.59c-.27-.05-.45-.32-.39-.59s.32-.45,.59-.39l2.94,.59c.27,.05,.45,.32,.39,.59-.05,.24-.26,.4-.49,.4Zm-5.88-1.18s-.07,0-.1,0l-2.94-.59c-.27-.05-.45-.32-.39-.59s.32-.45,.59-.39l2.94,.59c.27,.05,.45,.32,.39,.59-.05,.24-.26,.4-.49,.4Zm-5.88-1.18s-.07,0-.1,0l-2.94-.59c-.27-.05-.45-.32-.39-.59s.32-.45,.59-.39l2.94,.59c.27,.05,.45,.32,.39,.59-.05,.24-.26,.4-.49,.4Zm-5.88-1.18s-.07,0-.1,0l-2.94-.59c-.27-.05-.45-.32-.39-.59,.05-.27,.32-.44,.59-.39l2.94,.59c.27,.05,.45,.32,.39,.59-.05,.24-.26,.4-.49,.4Zm-5.88-1.18s-.07,0-.1,0l-2.94-.59c-.27-.05-.45-.32-.39-.59,.05-.27,.32-.45,.59-.39l2.94,.59c.27,.05,.45,.32,.39,.59-.05,.24-.26,.4-.49,.4Zm-5.88-1.18s-.07,0-.1,0l-2.94-.59c-.27-.05-.45-.32-.39-.59,.05-.27,.32-.45,.59-.39l2.94,.59c.27,.05,.45,.32,.39,.59-.05,.24-.26,.4-.49,.4Zm-5.88-1.18s-.07,0-.1,0l-2.94-.59c-.27-.05-.45-.32-.39-.59,.05-.27,.32-.45,.59-.39l2.94,.59c.27,.05,.45,.32,.39,.59-.05,.24-.26,.4-.49,.4Zm-5.88-1.18s-.07,0-.1,0l-2.94-.59c-.27-.05-.45-.32-.39-.59,.05-.27,.32-.45,.59-.39l2.94,.59c.27,.05,.45,.32,.39,.59-.05,.24-.26,.4-.49,.4Zm-5.88-1.18s-.07,0-.1,0l-2.94-.59c-.27-.05-.45-.32-.39-.59s.32-.45,.59-.39l2.94,.59c.27,.05,.45,.32,.39,.59-.05,.24-.26,.4-.49,.4Zm-5.88-1.18s-.07,0-.1,0l-2.94-.59c-.27-.05-.45-.32-.39-.59s.32-.44,.59-.39l2.94,.59c.27,.05,.45,.32,.39,.59-.05,.24-.26,.4-.49,.4Zm-5.88-1.18s-.07,0-.1,0l-2.94-.59c-.27-.05-.45-.32-.39-.59s.32-.45,.59-.39l2.94,.59c.27,.05,.45,.32,.39,.59-.05,.24-.26,.4-.49,.4Zm-5.88-1.18s-.07,0-.1,0l-2.94-.59c-.27-.05-.45-.32-.39-.59s.32-.44,.59-.39l2.94,.59c.27,.05,.45,.32,.39,.59-.05,.24-.26,.4-.49,.4Zm-5.88-1.18s-.07,0-.1,0l-2.94-.59c-.27-.05-.45-.32-.39-.59s.32-.44,.59-.39l2.94,.59c.27,.05,.45,.32,.39,.59-.05,.24-.26,.4-.49,.4Zm-5.88-1.18s-.07,0-.1,0l-2.94-.59c-.27-.05-.45-.32-.39-.59s.32-.44,.59-.39l2.94,.59c.27,.05,.45,.32,.39,.59-.05,.24-.26,.4-.49,.4Zm-5.88-1.18s-.07,0-.1,0l-2.94-.59c-.27-.05-.45-.32-.39-.59s.32-.44,.59-.39l2.94,.59c.27,.05,.45,.32,.39,.59-.05,.24-.26,.4-.49,.4Zm-5.88-1.18s-.07,0-.1,0l-2.94-.59c-.27-.05-.45-.32-.39-.59s.32-.45,.59-.39l2.94,.59c.27,.05,.45,.32,.39,.59-.05,.24-.26,.4-.49,.4Zm-5.88-1.18s-.07,0-.1,0l-2.94-.59c-.27-.05-.45-.32-.39-.59s.32-.44,.59-.39l2.94,.59c.27,.05,.45,.32,.39,.59-.05,.24-.26,.4-.49,.4Zm-5.88-1.18s-.07,0-.1,0l-2.94-.59c-.27-.05-.45-.32-.39-.59,.06-.27,.33-.45,.59-.39l2.94,.59c.27,.05,.45,.32,.39,.59-.05,.24-.26,.4-.49,.4Z" fill="#002346"></path>
  <path d="M352.21,351.88v2.54h-2.54v-2.54h2.54Z" fill="#fff"></path>
  <g>
    <rect x="428.38" y="572.75" width="98.68" height="7.85" fill="#e6e7e8"></rect>
    <path d="M527.56,581.1h-99.68v-8.85h99.68v8.85Zm-98.68-1h97.68v-6.85h-97.68v6.85Z" fill="#002346"></path>
  </g>
  <g>
    <path d="M407.09,358.05c-15.32,16.52-7.24,85.79-4.75,101.9,.71,4.59,1.28,9.2,1.77,13.82,3.41,32.33,26.37,36.55,26.37,36.55l-16.15,129.5h9.74l15.48-124.21h70.63l17.82,117.1,7.43-1.58-18.71-131" fill="#e6e7e8"></path>
    <path d="M424.51,640.32h-10.75l.07-.56,16.09-129.05c-3.3-.84-23.17-7.1-26.31-36.88-.54-5.08-1.12-9.59-1.77-13.8-.13-.83-12.38-83.71,4.88-102.32l.73,.68c-14.28,15.4-8.18,78.48-4.63,101.49,.65,4.22,1.23,8.75,1.77,13.84,3.33,31.59,25.74,36.07,25.96,36.11l.46,.09-.06,.47-16.08,128.94h8.73l15.48-124.21h71.5l.06,.42,17.74,116.58,6.45-1.37-18.64-130.54,.99-.14,18.78,131.46-8.4,1.79-.08-.52-17.76-116.68h-69.76l-15.48,124.21Z" fill="#002346"></path>
  </g>
  <g>
    <polygon points="510.2 592.11 503.09 607.84 484.54 605.75 491.12 587.38 510.2 592.11" fill="#f2b3c1"></polygon>
    <path d="M503.39,608.38l-19.54-2.2,6.95-19.39,20.09,4.98-7.5,16.61Zm-18.17-3.05l17.56,1.98,6.71-14.85-18.05-4.47-6.22,17.35Z" fill="#002346"></path>
  </g>
  <g>
    <path d="M495.09,496.05l20.67,7.5c-17.67,49.5-33.67,86.5-33.67,86.5,24,4,33,6,33,6,0,0,37-71,44.5-81.5l-15.59-19.26-10.48-10.17-38.43,10.93Z" fill="#1358f1"></path>
    <path d="M515.36,596.62l-.37-.08c-.09-.02-9.27-2.04-32.97-6l-.63-.11,.25-.59c.16-.37,16.09-37.31,33.49-86l-21.65-7.86,40.19-11.43,10.69,10.37,15.87,19.6-.22,.31c-7.39,10.35-44.09,80.73-44.46,81.44l-.18,.34Zm-32.55-6.96c20.66,3.45,30.1,5.41,32.02,5.82,2.76-5.28,36.52-69.9,44.14-80.91l-15.36-18.96-10.23-9.92-36.66,10.43,19.68,7.14-.17,.47c-16.27,45.6-31.31,81.01-33.43,85.94Z" fill="#002346"></path>
  </g>
  <g>
    <path d="M619.34,578.22l-8.12-8.9,15.03-11.02,6.29,7.99s-6.27,12.37-13.19,11.93Z" fill="#f2b3c1"></path>
    <path d="M619.71,578.73c-.13,0-.27,0-.4-.01h-.2s-8.64-9.47-8.64-9.47l15.87-11.63,6.79,8.62-.14,.28c-.26,.51-6.27,12.22-13.27,12.22Zm-.14-1s.09,0,.14,0c5.83,0,11.28-9.61,12.23-11.39l-5.79-7.35-14.19,10.41,7.61,8.33Z" fill="#002346"></path>
  </g>
  <g>
    <path d="M503.64,351.27c-1.75-16.48-21.89-20-30.26-20.8-2.55-.24-5.08-.65-7.57-1.25-9.91-2.39-34.34-8.07-48.48,4.18,0,0,8,108.43,6.08,116.81h71.59s9.92-86.93,8.64-98.94Z" fill="#74f676"></path>
    <path d="M495.45,450.71h-72.66l.14-.61c1.88-8.21-6.01-115.58-6.09-116.66l-.02-.25,.19-.16c14.52-12.58,39.51-6.56,48.92-4.29,2.46,.59,4.98,1,7.5,1.24,8.64,.83,28.94,4.55,30.71,21.25h0c1.27,11.93-8.23,95.5-8.64,99.05l-.05,.44Zm-71.45-1h70.55c.76-6.74,9.8-87.01,8.59-98.39h0c-1.7-15.96-21.41-19.55-29.81-20.35-2.56-.24-5.13-.66-7.64-1.26-9.23-2.23-33.68-8.12-47.85,3.91,.51,7,7.64,104.42,6.15,116.1Z" fill="#002346"></path>
  </g>
  <g>
    <path d="M631.25,557.66l-24.16,19.39s-44-53-74.09-88.96c0,0-114.71,51.93-113.25-31h138.79c4.06,0,7.91,1.76,10.56,4.83,10.56,12.2,38.73,51.04,62.15,95.74Z" fill="#1358f1"></path>
    <path d="M607.02,577.75l-.31-.38c-.44-.53-44.11-53.12-73.85-88.67-3.78,1.65-37.16,15.88-66.71,15.88-11.09,0-21.64-2-29.88-7.42-11.63-7.65-17.35-21.13-17.02-40.07v-.49h139.32c4.2,0,8.17,1.82,10.91,5,9.92,11.46,38.18,49.97,62.21,95.83l.19,.37-.32,.26-24.54,19.7Zm-73.88-90.27l.24,.29c28.42,33.96,69.76,83.74,73.78,88.58l23.45-18.82c-23.95-45.63-52.02-83.88-61.89-95.28-2.55-2.96-6.25-4.66-10.15-4.66h-138.33c-.22,18.32,5.36,31.35,16.58,38.73,30.95,20.35,95.33-8.39,95.97-8.68l.35-.16Z" fill="#002346"></path>
  </g>
  <g>
    <path d="M474.13,339.84v-20l-20-10.74s-4.13,11.52-11.54,16.7c-.04,.03,5.51,21.24,31.54,14.04Z" fill="#f2b3c1"></path>
    <path d="M464.11,341.82c-12.88,0-18.61-8.32-20.69-12.52-.78-1.58-1.61-3.54-1.13-3.9,7.21-5.04,11.33-16.36,11.37-16.47l.2-.55,20.77,11.16v20.68l-.37,.1c-3.8,1.05-7.17,1.5-10.16,1.5Zm-20.94-15.81c.43,1.42,2.69,7.82,9.12,11.74,5.61,3.43,12.79,4,21.35,1.71v-19.32l-19.23-10.33c-.91,2.34-4.79,11.5-11.23,16.19Z" fill="#002346"></path>
  </g>
  <g>
    <path d="M615.11,578.53l17.42-15.4,13.16,18.65s12.41-14.73,24.41-3.73l-32,28-22.98-27.52Z" fill="#74f676"></path>
    <path d="M638.04,606.76l-23.62-28.29,18.2-16.09,13.11,18.59c1.54-1.67,7.02-7.04,13.86-7.48,3.89-.25,7.54,1.16,10.84,4.18l.41,.38-32.8,28.7Zm-22.23-28.18l22.34,26.76,31.19-27.29c-2.98-2.58-6.23-3.78-9.67-3.55-7.5,.48-13.54,7.53-13.6,7.6l-.42,.5-13.21-18.72-16.64,14.71Z" fill="#002346"></path>
  </g>
  <g>
    <path d="M486.12,595.3l22.56,5.73-8.06,21.35s22.48,.66,16.48,16.66l-43-7,12.02-36.75Z" fill="#74f676"></path>
    <path d="M517.42,639.61l-.4-.07-43.58-7.09,12.35-37.75,23.56,5.99-8.02,21.24c2.65,.18,11.97,1.21,15.73,6.81,1.89,2.82,2.06,6.35,.51,10.49l-.14,.38Zm-42.67-7.96l42.01,6.84c1.28-3.65,1.1-6.74-.54-9.19-4.02-5.99-15.51-6.41-15.62-6.41l-.7-.02,8.11-21.48-21.57-5.48-11.7,35.75Z" fill="#002346"></path>
  </g>
  <path d="M624.48,447.43h-6.64c-1.34,0-2.49-.79-3.14-2.17-.96-2.01-.61-4.67,.85-6.47,4.16-5.07,11.05-6.86,17.15-4.47,6.03,2.23,5.72,6.56,5.71,6.74-.02,.18-.13,.34-.3,.41l-13.43,5.91c-.06,.03-.13,.04-.2,.04Zm2.7-13.15c-4.12,0-8.12,1.82-10.85,5.15-1.43,1.76-1.38,4.03-.73,5.4,.28,.6,.95,1.6,2.24,1.6h6.53l13.04-5.74c-.05-.91-.57-3.77-5.07-5.43-1.69-.66-3.44-.98-5.17-.98Zm10.73,6.74h0Zm0,0h0Z" fill="#002346"></path>
  <g>
    <path d="M641.17,445.33h-12.81c-.96,0-1.73-.76-1.74-1.72,0-.02,0-.04,0-.06v-4.42h16.28v4.42c.03,.96-.72,1.75-1.68,1.78-.02,0-.03,0-.05,0Z" fill="#74f676"></path>
    <path d="M628.35,445.83c-.59,0-1.14-.23-1.56-.64-.42-.42-.66-.98-.66-1.57v-4.98h17.28v4.92c.04,1.21-.94,2.24-2.17,2.28h-12.88s0,0-.01,0Zm12.82-.96v.46s.01-.5,.01-.5c.7-.02,1.24-.59,1.22-1.27v-3.93h-15.28v3.92c0,.39,.13,.69,.36,.93,.23,.23,.54,.35,.87,.35h0l12.81,.04Z" fill="#002346"></path>
  </g>
  <g>
    <path d="M642.9,439.21c0-2.34-3.65-4.24-8.14-4.24s-8.14,1.9-8.14,4.24h16.28Z" fill="#74f676"></path>
    <path d="M643.4,439.71h-17.28v-.5c0-2.66,3.79-4.74,8.64-4.74s8.64,2.08,8.64,4.74v.5Zm-16.21-1h15.14c-.52-1.8-3.77-3.24-7.57-3.24s-7.05,1.44-7.57,3.24Z" fill="#002346"></path>
  </g>
  <g>
    <polygon points="470.11 444.97 501.73 444.97 501.73 437.24 470.11 440.55 470.11 444.97" fill="#fff"></polygon>
    <path d="M502.23,445.47h-32.62v-5.37l32.62-3.41v8.78Zm-31.62-1h30.62v-6.67l-30.62,3.21v3.47Z" fill="#002346"></path>
  </g>
  <g>
    <rect x="501.73" y="437.23" width="79.09" height="7.73" fill="#fff"></rect>
    <path d="M581.32,445.46h-80.09v-8.73h80.09v8.73Zm-79.09-1h78.09v-6.73h-78.09v6.73Z" fill="#002346"></path>
  </g>
  <g>
    <path d="M525.68,328.87h9l-9.22,87.72h-9c-1.83,.04-3.35-1.42-3.39-3.25,0-.17,0-.34,.03-.51l8.43-80.21c.26-2.11,2.03-3.7,4.15-3.75Z" fill="#e6e7e8"></path>
    <path d="M516.38,417.09c-2.06,0-3.77-1.66-3.81-3.74,0-.2,0-.39,.03-.59l8.43-80.2c.29-2.34,2.28-4.14,4.63-4.2h9.57l-.06,.55-9.27,88.17h-9.45s-.05,0-.08,0Zm9.31-87.72c-1.86,.04-3.43,1.47-3.66,3.31l-8.43,80.2c-.02,.16-.03,.3-.03,.45,.02,.75,.32,1.46,.87,1.98s1.28,.83,2.01,.78h8.56l9.11-86.72h-8.44Z" fill="#002346"></path>
  </g>
  <g>
    <path d="M520.68,416.59h113.72c2.13-.05,3.89-1.65,4.15-3.76l8.45-80.21c.24-1.82-1.04-3.48-2.86-3.72-.17-.02-.33-.03-.5-.03h-113.74c-2.13,.04-3.9,1.64-4.16,3.75l-8.43,80.21c-.24,1.82,1.05,3.49,2.87,3.73,.17,.02,.33,.03,.5,.03Z" fill="#fff"></path>
    <path d="M520.62,417.09c-.17,0-.33-.01-.5-.03-2.09-.27-3.58-2.2-3.3-4.29l8.43-80.2c.29-2.35,2.29-4.15,4.65-4.2h113.75c.18,0,.37,0,.56,.03,1.01,.13,1.91,.65,2.53,1.46,.62,.81,.89,1.81,.76,2.82l-8.45,80.2c-.29,2.35-2.28,4.15-4.63,4.21h-113.73s-.04,0-.07,0Zm123.09-87.72s-.04,0-.06,0h-113.75c-1.85,.04-3.43,1.46-3.66,3.31l-8.43,80.2c-.2,1.56,.89,2.98,2.44,3.18,.14,.02,.28,.02,.42,.02h113.73c1.85-.04,3.43-1.47,3.65-3.32l8.45-80.2c.2-1.55-.89-2.97-2.43-3.17-.12-.02-.24-.02-.36-.02Z" fill="#002346"></path>
  </g>
  <g>
    <rect x="560.19" y="434.64" width="56.56" height="10.33" fill="#fff"></rect>
    <path d="M617.25,445.47h-57.56v-11.33h57.56v11.33Zm-56.56-1h55.56v-9.33h-55.56v9.33Z" fill="#002346"></path>
  </g>
  <g>
    <rect x="543.65" y="434.64" width="16.55" height="10.33" fill="#e6e7e8"></rect>
    <path d="M560.7,445.47h-17.55v-11.33h17.55v11.33Zm-16.55-1h15.55v-9.33h-15.55v9.33Z" fill="#002346"></path>
  </g>
  <g>
    <path d="M568.79,381.08l5.63,53.56h-4.29l-5.63-53.56c-.18-1.09,.55-2.12,1.64-2.3,.15-.02,.29-.03,.44-.02h4.29c-1.13-.03-2.07,.87-2.1,2,0,.11,0,.22,.02,.33Z" fill="#e6e7e8"></path>
    <path d="M574.98,435.14h-5.3l-5.68-54.01c-.22-1.33,.69-2.62,2.05-2.85,.18-.03,.37-.04,.55-.03h4.16s.08,0,.12,0v1h-.11c-.82,.02-1.49,.68-1.5,1.51,0,.08,0,.17,.01,.25v.02s5.69,54.11,5.69,54.11Zm-4.4-1h3.28l-5.57-53c-.02-.13-.03-.27-.02-.4,.01-.56,.21-1.07,.53-1.49h-2.22c-.14,0-.25,0-.36,.02-.81,.14-1.37,.91-1.23,1.73l5.59,53.14Z" fill="#002346"></path>
  </g>
  <path d="M568.79,381.08l5.63,53.56h27.89l-5.63-53.56c-.15-1.31-1.25-2.3-2.57-2.33h-23.24c-1.13-.03-2.07,.87-2.1,2,0,.11,0,.22,.02,.33Z" fill="#2f2e41"></path>
  <g>
    <path d="M568.79,381.08l5.63,53.56h27.89l-5.63-53.56c-.15-1.31-1.25-2.3-2.57-2.33h-23.24c-1.13-.03-2.07,.87-2.1,2,0,.11,0,.22,.02,.33Z" fill="#fff"></path>
    <path d="M602.87,435.14h-28.9l-5.68-54c-.02-.13-.03-.27-.02-.41,.03-1.38,1.17-2.49,2.55-2.49,.02,0,.04,0,.06,0h23.23c1.57,.03,2.88,1.22,3.07,2.77l5.69,54.12Zm-28-1h26.88l-5.57-53.01c-.12-1.05-1.02-1.86-2.08-1.88h-23.23c-.87-.02-1.58,.66-1.6,1.51,0,.08,0,.17,.01,.25v.02s5.58,53.11,5.58,53.11Z" fill="#002346"></path>
  </g>
  <g>
    <path d="M736.87,500.17v104.48c0,30.66-24,55.53-53.66,55.53h-35.31c29.62,0,53.66-24.87,53.66-55.53v-104.48c0-30.66-24-55.53-53.66-55.53h35.31c29.65,0,53.66,24.87,53.66,55.53Z" fill="#e6e7e8"></path>
    <path d="M683.21,660.68h-35.31v-1c29.31,0,53.16-24.69,53.16-55.03v-104.48c0-30.34-23.85-55.03-53.16-55.03v-1h35.31c29.86,0,54.16,25.13,54.16,56.03v104.48c0,30.9-24.3,56.03-54.16,56.03Zm-25.09-1h25.09c29.31,0,53.16-24.69,53.16-55.03v-104.48c0-30.34-23.85-55.03-53.16-55.03h-25.09c25,4.96,43.94,27.75,43.94,55.03v104.48c0,27.28-18.95,50.07-43.94,55.03Z" fill="#002346"></path>
  </g>
  <g>
    <path d="M431.43,660.18h-35.33c-29.63,0-53.64-24.87-53.64-55.53v-104.48c0-30.66,24-55.53,53.64-55.53h35.33c-29.64,0-53.66,24.87-53.66,55.53v104.48c0,30.66,24.02,55.53,53.66,55.53Z" fill="#e6e7e8"></path>
    <path d="M431.43,660.68h-35.33c-29.85,0-54.14-25.13-54.14-56.03v-104.48c0-30.9,24.29-56.03,54.14-56.03h35.33v1c-29.31,0-53.16,24.69-53.16,55.03v104.48c0,30.34,23.85,55.03,53.16,55.03v1Zm-35.33-215.54c-29.3,0-53.14,24.69-53.14,55.03v104.48c0,30.34,23.84,55.03,53.14,55.03h25.11c-25-4.96-43.94-27.75-43.94-55.03v-104.48c0-27.28,18.95-50.07,43.94-55.03h-25.11Z" fill="#002346"></path>
  </g>
  <g>
    <path d="M683.22,444.64h-251.79c-29.64,0-53.66,24.86-53.66,55.52v104.49c0,30.67,24,55.53,53.66,55.53h251.79c29.63,0,53.65-24.86,53.65-55.53v-104.49c0-30.66-24.02-55.52-53.65-55.52Zm0,0h-251.79c-29.64,0-53.66,24.86-53.66,55.52v104.49c0,30.67,24,55.53,53.66,55.53h251.79c29.63,0,53.65-24.86,53.65-55.53v-104.49c0-30.66-24.02-55.52-53.65-55.52Zm40.38,160c0,23-18.11,41.8-40.38,41.8h-251.79c-22.27,0-40.39-18.75-40.39-41.8v-104.48c0-23,18.12-41.79,40.39-41.79h251.79c22.27,0,40.38,18.75,40.38,41.79v104.48Zm0,0c0,23-18.11,41.8-40.38,41.8h-251.79c-22.27,0-40.39-18.75-40.39-41.8v-104.48c0-23,18.12-41.79,40.39-41.79h251.79c22.27,0,40.38,18.75,40.38,41.79v104.48Z" fill="#fff"></path>
    <path d="M683.22,660.68h-251.79c-29.86,0-54.16-25.13-54.16-56.03v-104.49c0-30.89,24.3-56.02,54.16-56.02h251.79c29.86,0,54.15,25.13,54.15,56.02v104.49c0,30.9-24.29,56.03-54.15,56.03Zm-304.95-56.03c0,30.34,23.85,55.03,53.16,55.03h251.79c29.31,0,53.15-24.69,53.15-55.03v-104.49c0-30.34-23.84-55.02-53.15-55.02h-251.79c-29.31,0-53.16,24.68-53.16,55.02v104.49Zm304.95,42.29h-251.79c-22.55,0-40.89-18.98-40.89-42.3v-104.48c0-23.32,18.34-42.29,40.89-42.29h251.79c22.54,0,40.88,18.97,40.88,42.29v104.48c0,23.32-18.34,42.3-40.88,42.3Zm-291.68-42.3c0,22.77,17.89,41.3,39.89,41.3h251.79c21.99,0,39.88-18.53,39.88-41.3v-104.48c0-22.77-17.89-41.29-39.88-41.29h-251.79c-22,0-39.89,18.52-39.89,41.29v104.48Z" fill="#002346"></path>
  </g>
  <path d="M762.67,661.34H103.09c-.28,0-.5-.22-.5-.5s.22-.5,.5-.5H762.67c.28,0,.5,.22,.5,.5s-.22,.5-.5,.5Z" fill="#002346"></path>
  <g>
    <path d="M509.09,427.05s10.65,5.81,6.62,7.94c-2.57,1.37-7.25-4-10.76-4.23s1.79-3.22,1.79-3.22l2.35-.49Z" fill="#f2b3c1"></path>
    <path d="M514.76,435.72c-1.46,0-3.16-1.07-4.95-2.19-1.7-1.07-3.45-2.17-4.9-2.26-.36-.02-1.46-.1-1.65-.89-.25-1.11,1.91-2.52,3.22-3.26l.14-.05,2.53-.53,.16,.09c.8,.44,7.81,4.34,7.79,7.13,0,.49-.21,1.18-1.18,1.69-.37,.2-.76,.28-1.18,.28Zm-10.51-5.57s.24,.08,.73,.12c1.7,.11,3.56,1.28,5.37,2.42,1.95,1.22,3.96,2.5,5.12,1.87,.58-.3,.65-.61,.65-.81,.01-1.62-4.29-4.6-7.11-6.16l-2.1,.44c-1.34,.77-2.58,1.76-2.67,2.13,0,0,0,0,0,0Z" fill="#002346"></path>
  </g>
  <g>
    <path d="M509.52,435.73c.66,1.29-.64,2.84-1.99,2.28-.57-.24-1.05-.68-1.31-1.28l-.64-1.47s-1.49,3.79-3.49,.79c-.41-.38-1.7-2.88-3.09-4.54,0,0-2.91-3.46-3.29-2.87,0,0,3.56,4.69,2.47,6.55-1.45,2.47-8.93-5.35-11.56-5.16s-3.84,5.93-17.2,1.66c-.59-.19-1.22-.26-1.84-.2-2.48,.24-9.23,1.26-13.11,1.28-22.41,.1-35.77-10.64-35.9-12.17-.33-3.64,16.72-14.59,25.05-10.37,.67,.33,13.48,7.23,14.21,7.41,8.26,2.41,11.58,2.7,14.9,3,5.89,.59,23.67-.09,23.67-.09,.41,0,.81,.09,1.18,.26l10.1,4.59c.36,.17,.68,.41,.94,.72,0,0,.62,.67,1.3,1.41,1.09,1.2,1.89,2.63,2.32,4.19l.37,1.35c-.35-1.37,.06,.21,.07,.32,.06,.6,0,1.21-.16,1.79-.1,.28-.26,.53-.47,.71-.58,.5-1.47,.42-2.05-.07l-.91-.77s.22,.28,.43,.68Z" fill="#f2b3c1"></path>
    <path d="M508.11,438.63c-.26,0-.52-.05-.77-.16-.71-.29-1.27-.84-1.58-1.54l-.23-.52c-.38,.57-.96,1.2-1.72,1.28-.74,.09-1.46-.37-2.11-1.33-.2-.21-.46-.62-.93-1.38-.57-.93-1.36-2.2-2.16-3.15-.29-.35-.61-.71-.93-1.06,.86,1.56,1.61,3.5,.93,4.67-.21,.36-.54,.6-.94,.69-1.4,.32-3.68-1.26-6.09-2.93-1.86-1.29-3.97-2.74-4.93-2.68-.54,.04-1.07,.42-1.74,.9-2.2,1.58-5.51,3.97-15.65,.73-.53-.17-1.08-.23-1.64-.18-.69,.07-1.71,.19-2.91,.34-3.13,.39-7.42,.92-10.25,.94-.11,0-.21,0-.32,0-22.4,0-35.91-10.63-36.08-12.63-.2-2.2,4.11-5.31,5.44-6.21,6.28-4.26,15.01-7.35,20.33-4.65,.17,.08,1.2,.63,2.63,1.39,3.52,1.88,10.86,5.79,11.49,5.98,8.19,2.39,11.54,2.69,14.77,2.98,5.84,.59,23.47-.08,23.65-.09h0c.5,0,.97,.1,1.41,.31l10.1,4.59c.43,.2,.82,.5,1.12,.86h0s.62,.66,1.29,1.39c1.14,1.25,1.98,2.77,2.44,4.4l.21,.74c.18,.35,.24,.88,.25,1.02,.07,.66,0,1.33-.18,1.97-.13,.38-.34,.7-.63,.95-.59,.52-1.45,.6-2.19,.26-.01,.51-.22,1.02-.59,1.43-.41,.44-.94,.68-1.49,.68Zm-2.55-4.67l1.12,2.57c.21,.46,.58,.83,1.05,1.02,.59,.25,1.02-.15,1.14-.28,.26-.28,.47-.79,.21-1.31h0c-.18-.35-.37-.6-.37-.6l-2.94-3.78,4.57,3.86c.37,.31,1,.43,1.4,.08,.15-.13,.26-.3,.33-.49,.14-.5,.19-1.04,.14-1.58,0-.04-.04-.16-.07-.29l-.36-1.29c-.41-1.48-1.18-2.86-2.21-3.99-.68-.74-1.3-1.41-1.3-1.41-.23-.27-.48-.47-.78-.61l-10.1-4.59c-.31-.14-.64-.21-.97-.21-.71,.03-17.86,.68-23.72,.09-3.32-.3-6.72-.61-14.99-3.02-.48-.12-4.65-2.31-11.69-6.06-1.41-.75-2.43-1.29-2.6-1.38-4.95-2.5-13.49,.62-19.33,4.58-3.55,2.41-5.08,4.43-5,5.29,.4,1.41,13.06,11.72,35.08,11.72,.11,0,.21,0,.32,0,2.77-.01,7.02-.54,10.13-.93,1.21-.15,2.24-.28,2.94-.35,.69-.07,1.38,0,2.04,.22,9.65,3.09,12.73,.87,14.76-.59,.77-.55,1.43-1.03,2.25-1.09,1.3-.1,3.28,1.27,5.57,2.85,1.92,1.33,4.32,2.98,5.3,2.77,.13-.03,.22-.1,.29-.22,.67-1.14-1.14-4.28-2.44-6l-.21-.28,.19-.29c.11-.17,.3-.28,.51-.29,.01,0,.02,0,.03,0,.62,0,1.81,1.05,3.55,3.12,.84,1.01,1.65,2.31,2.24,3.27,.32,.52,.69,1.11,.81,1.23l.08,.09c.3,.45,.77,.98,1.2,.93,.65-.07,1.25-1.22,1.41-1.62l.44-1.12Z" fill="#002346"></path>
  </g>
  <g>
    <rect x="454.28" y="269.16" width="40.17" height="55.15" rx="20.09" ry="20.09" transform="translate(153.43 -161.6) rotate(22.97)" fill="#f2b3c1"></rect>
    <path d="M471.41,324.22c-2.68,0-5.39-.52-8.01-1.63-5.06-2.15-8.99-6.13-11.05-11.23-2.06-5.1-2.02-10.69,.13-15.75l5.84-13.79c2.15-5.06,6.13-8.99,11.23-11.05,5.1-2.06,10.69-2.01,15.75,.13,5.06,2.15,8.99,6.13,11.05,11.23,2.06,5.1,2.02,10.69-.13,15.75l-5.84,13.79c-3.32,7.84-10.96,12.55-18.98,12.55Zm5.87-53.97c-2.49,0-4.97,.48-7.35,1.44-4.85,1.96-8.64,5.7-10.69,10.51l-5.84,13.79c-4.21,9.94,.45,21.46,10.39,25.68,9.94,4.21,21.46-.45,25.68-10.39l5.84-13.79c4.21-9.94-.45-21.46-10.39-25.68-2.46-1.04-5.05-1.56-7.64-1.56Z" fill="#002346"></path>
  </g>
  <g>
    <g>
      <circle cx="461.66" cy="256.86" r="11.24" fill="#002346"></circle>
      <path d="M450.19,254.73c1.18-6.33,7.28-10.52,13.61-9.34,6.33,1.18,10.52,7.28,9.34,13.61-1.18,6.33-7.28,10.52-13.61,9.34-6.33-1.18-10.52-7.28-9.34-13.61Zm.85,.16c-1.09,5.86,2.79,11.51,8.65,12.6s11.51-2.79,12.6-8.65c1.09-5.86-2.79-11.51-8.65-12.6-5.86-1.09-11.51,2.79-12.6,8.65Z" fill="#0d2445"></path>
    </g>
    <g>
      <circle cx="466.89" cy="264.83" r="8.64" fill="#74f676"></circle>
      <path d="M457.97,263.17c.91-4.92,5.66-8.18,10.58-7.26s8.18,5.66,7.26,10.58c-.91,4.92-5.66,8.18-10.58,7.26s-8.18-5.66-7.26-10.58Zm.85,.16c-.83,4.45,2.12,8.75,6.57,9.57,4.45,.83,8.75-2.12,9.57-6.57,.83-4.45-2.12-8.75-6.57-9.57-4.45-.83-8.75,2.12-9.57,6.57Z" fill="#002346"></path>
    </g>
  </g>
  <g>
    <path d="M494.57,282.89s-7.31,5.02-22.08,3.43c0,0-.79,7.39-11.92,11.11,0,0-8.67,10.99-1.47,21.48,0,0-4.94,.5-11.24-2.99,0,0-5.04,3.46-11.98,1.77-2.82-.68-5.06-2.9-5.68-5.73-.83-3.8-.28-10.21,5.93-20.24,0,0,17.16-36.21,39.57-32.04,0,0,10.62,.31,18.55,6.65,7.99,6.39,7.28,23.17,2.59,29.38l-.87-3.57c-.74-3.04-1.21-6.13-1.4-9.25h0Z" fill="#002346"></path>
    <path d="M458.36,319.44c-1.64,0-5.63-.31-10.48-2.93-1.15,.7-5.85,3.2-12.12,1.68-3.02-.73-5.4-3.13-6.05-6.11-.8-3.69-.42-10.26,6-20.61,.68-1.44,17.56-36.46,40.08-32.27,.36,0,10.8,.38,18.77,6.75,8.17,6.53,7.62,23.53,2.67,30.07l-.63,.84-1.12-4.6c-.68-2.79-1.14-5.65-1.36-8.52-2.17,1.2-9.17,4.33-21.22,3.12-.39,1.76-2.38,7.71-12.02,10.99-.87,1.18-7.88,11.27-1.36,20.77l.48,.7-.84,.08s-.32,.03-.79,.03Zm-10.53-4.1l.27,.15c4.59,2.54,8.45,2.92,10.09,2.95-6.42-10.44,1.9-21.2,1.98-21.31l.09-.12,.14-.05c10.65-3.57,11.57-10.62,11.58-10.69l.06-.49,.5,.05c14.39,1.54,21.67-3.29,21.74-3.34l.73-.5,.05,.88c.19,3.09,.66,6.17,1.39,9.16l.61,2.48c4.03-6.7,4.16-21.96-3.12-27.77-7.7-6.16-18.15-6.54-18.25-6.54-21.83-4.07-38.93,31.4-39.1,31.76-6.26,10.11-6.66,16.41-5.9,19.92,.57,2.61,2.65,4.71,5.31,5.35,6.62,1.61,11.53-1.66,11.58-1.7l.25-.17Z" fill="#002346"></path>
  </g>
  <g>
    <ellipse cx="457.59" cy="290.05" rx="6.5" ry="5" transform="translate(11.96 598.15) rotate(-67.03)" fill="#f2b3c1"></ellipse>
    <path d="M456.62,296.85c-.6,0-1.2-.12-1.75-.35-2.79-1.18-3.84-5.04-2.33-8.59,.72-1.7,1.91-3.08,3.36-3.9,1.49-.84,3.06-.98,4.44-.4,1.38,.58,2.37,1.81,2.8,3.47,.42,1.6,.25,3.42-.47,5.12h0c-.72,1.7-1.91,3.08-3.36,3.9-.88,.5-1.8,.75-2.69,.75Zm1.96-12.6c-.72,0-1.47,.21-2.2,.62-1.25,.71-2.29,1.92-2.93,3.42-1.29,3.05-.48,6.31,1.8,7.28,1.08,.46,2.35,.34,3.56-.35,1.25-.71,2.29-1.92,2.93-3.42h0c.63-1.5,.78-3.09,.42-4.48-.35-1.35-1.14-2.34-2.22-2.8-.43-.18-.89-.27-1.36-.27Z" fill="#002346"></path>
  </g>
  <g>
    <path d="M412.99,334.24c2.89-1.74,7.87-2.18,11.06-1.11,2.14,.71,4.22,1.8,6.82,7.29,1.33,2.8,2.29,5.77,2.95,8.81l12.69,58.47-29.78,18.7-12.16-45.57c-1.74-6.52-2.66-13.24-2.53-19.99,.18-9.62,2.34-21.4,10.96-26.59Z" fill="#74f676"></path>
    <path d="M416.42,427.18l-12.34-46.22c-1.81-6.8-2.67-13.57-2.55-20.13,.18-9.35,2.26-21.63,11.2-27.01h0c2.94-1.77,8.09-2.29,11.48-1.16,2.21,.74,4.42,1.87,7.11,7.55,1.28,2.71,2.29,5.71,2.98,8.92l12.76,58.81-30.65,19.24Zm-3.17-92.51h0c-8.55,5.14-10.55,17.07-10.72,26.17-.12,6.47,.73,13.15,2.52,19.85l11.99,44.91,28.9-18.15-12.61-58.12c-.68-3.14-1.66-6.06-2.91-8.7-2.52-5.33-4.45-6.34-6.53-7.03-3.14-1.05-7.92-.57-10.65,1.07Z" fill="#002346"></path>
  </g>
  <path d="M509.09,435.55c-.15,0-.29-.06-.39-.19l-4-5c-.17-.22-.14-.53,.08-.7,.22-.17,.53-.14,.7,.08l4,5c.17,.22,.14,.53-.08,.7-.09,.07-.2,.11-.31,.11Z" fill="#002346"></path>
  <path d="M505.58,435.76s-.08,0-.12-.01c-.26-.06-.43-.32-.37-.58,0-.06,.1-1.37-2.85-3.37-.23-.16-.29-.47-.13-.7,.16-.23,.47-.28,.7-.13,3.61,2.45,3.31,4.22,3.26,4.41-.05,.23-.26,.38-.49,.38Z" fill="#002346"></path>
  <path d="M528.52,366.46s-.04,0-.07,0c-.27-.04-.47-.29-.43-.56l3.4-25.72c.33-2.54,2.52-4.45,5.07-4.45h35.24c.28,0,.5,.22,.5,.5s-.22,.5-.5,.5h-35.24c-2.06,0-3.81,1.54-4.08,3.58l-3.4,25.72c-.03,.25-.25,.43-.5,.43Z" fill="#002346"></path>
  <g>
    <path d="M559.64,266.46v1.88h-1.89v-1.88h1.89Z" fill="#fff"></path>
    <g>
      <polygon points="632.09 197.19 632.09 273.05 548.09 273.05 548.09 160.05 595.02 160.05 632.09 197.19" fill="#fff"></polygon>
      <path d="M632.59,273.55h-85v-114h47.64l37.36,37.43v76.57Zm-84-1h83v-75.16l-36.78-36.84h-46.22v112Z" fill="#002346"></path>
    </g>
    <g>
      <path d="M595.02,160.13v36.63s.02,.03,.03,.03l36.95,.38s.05-.04,.03-.06l-36.95-37.02s-.06,0-.06,.02Z" fill="#e6e7e8"></path>
      <path d="M632.01,197.68l-37.45-.39-.04-.53v-36.97l.65-.28,.27,.25,37.18,37.25-.26,.65-.36,.02Zm-36.49-1.38l35.35,.37-35.35-35.42v35.05Z" fill="#002346"></path>
    </g>
    <g>
      <g>
        <rect x="566.59" y="209.55" width="47" height="5" fill="#e6e7e8"></rect>
        <path d="M614.09,215.05h-48v-6h48v6Zm-47-1h46v-4h-46v4Z" fill="#002346"></path>
      </g>
      <g>
        <rect x="566.59" y="220.05" width="47" height="5" fill="#e6e7e8"></rect>
        <path d="M614.09,225.55h-48v-6h48v6Zm-47-1h46v-4h-46v4Z" fill="#002346"></path>
      </g>
      <g>
        <rect x="566.59" y="230.05" width="47" height="5" fill="#e6e7e8"></rect>
        <path d="M614.09,235.55h-48v-6h48v6Zm-47-1h46v-4h-46v4Z" fill="#002346"></path>
      </g>
    </g>
    <g>
      <rect x="545.09" y="248.05" width="52" height="28" fill="#1358f1"></rect>
      <path d="M597.59,276.55h-53v-29h53v29Zm-52-1h51v-27h-51v27Z" fill="#002346"></path>
    </g>
    <g>
      <path d="M555.02,268.01c-.24-.24-.36-.54-.36-.92s.12-.68,.36-.92c.24-.24,.55-.36,.92-.36s.68,.12,.91,.36c.23,.24,.35,.55,.35,.92s-.12,.68-.36,.92c-.24,.24-.54,.36-.9,.36s-.68-.12-.92-.36Z" fill="#002346"></path>
      <path d="M558.76,268.27s-.06-.09-.06-.15v-12.17c0-.06,.02-.11,.06-.15,.04-.04,.09-.06,.15-.06h4.39c.85,0,1.6,.15,2.25,.45,.65,.3,1.15,.73,1.5,1.29,.35,.56,.53,1.21,.53,1.95v5.22c0,.74-.18,1.39-.53,1.95-.35,.56-.85,.99-1.5,1.29-.65,.3-1.4,.45-2.25,.45h-4.39c-.06,0-.11-.02-.15-.06Zm2.12-1.74h2.52c.64,0,1.14-.2,1.52-.6s.57-.94,.58-1.61v-4.55c0-.68-.19-1.23-.58-1.63-.38-.4-.9-.6-1.55-.6h-2.5c-.06,0-.09,.03-.09,.09v8.82c0,.06,.03,.09,.09,.09Z" fill="#002346"></path>
      <path d="M570.59,267.96c-.7-.37-1.23-.88-1.61-1.56s-.57-1.45-.57-2.32v-4.1c0-.86,.19-1.63,.58-2.29s.92-1.18,1.61-1.55c.69-.37,1.48-.55,2.38-.55s1.71,.18,2.4,.55c.69,.37,1.23,.88,1.61,1.55s.58,1.43,.58,2.29v4.1c0,.88-.19,1.65-.58,2.32s-.92,1.19-1.61,1.56c-.69,.37-1.49,.55-2.4,.55s-1.7-.18-2.39-.55Zm4.21-1.95c.46-.47,.68-1.09,.68-1.85v-4.19c0-.78-.23-1.4-.68-1.87-.46-.47-1.06-.7-1.82-.7s-1.34,.23-1.8,.7c-.46,.47-.68,1.09-.68,1.87v4.19c0,.77,.23,1.39,.68,1.85s1.06,.7,1.8,.7,1.36-.23,1.82-.7Z" fill="#002346"></path>
      <path d="M580.65,267.94c-.68-.35-1.21-.85-1.58-1.48-.37-.64-.56-1.38-.56-2.21v-4.45c0-.84,.19-1.58,.56-2.21,.37-.63,.9-1.13,1.58-1.48,.68-.35,1.48-.52,2.38-.52s1.67,.17,2.36,.5c.68,.34,1.21,.81,1.58,1.42s.56,1.32,.56,2.12c0,.06-.02,.11-.06,.15-.04,.04-.09,.06-.15,.06l-1.66,.09c-.14,0-.22-.07-.22-.2,0-.71-.22-1.28-.66-1.71-.44-.43-1.02-.65-1.75-.65s-1.32,.22-1.76,.65c-.44,.43-.67,1-.67,1.71v4.59c0,.7,.22,1.26,.67,1.69,.44,.43,1.03,.65,1.76,.65s1.32-.21,1.75-.64c.44-.43,.66-.99,.66-1.7,0-.13,.07-.2,.22-.2l1.66,.07c.06,0,.11,.02,.15,.05s.06,.08,.06,.13c0,.82-.19,1.53-.56,2.15-.37,.62-.9,1.1-1.58,1.43-.68,.34-1.47,.5-2.36,.5s-1.69-.18-2.38-.53Z" fill="#002346"></path>
    </g>
  </g>
  <g>
    <path d="M402.64,128.46v1.88h-1.89v-1.88h1.89Z" fill="#fff"></path>
    <g>
      <polygon points="475.09 59.19 475.09 135.05 391.09 135.05 391.09 22.05 438.02 22.05 475.09 59.19" fill="#fff"></polygon>
      <path d="M475.59,135.55h-85V21.55h47.64l37.36,37.43v76.57Zm-84-1h83V59.39l-36.78-36.84h-46.22v112Z" fill="#002346"></path>
    </g>
    <g>
      <path d="M438.02,22.08V58.8l37.04,.38s.02-.02,.01-.03l-37.02-37.09s-.03,0-.03,.01Z" fill="#e6e7e8"></path>
      <path d="M475.06,59.68l-37.54-.39V21.74l.65-.26,.25,.26,37.24,37.3-.25,.63h-.35Zm-36.54-1.37l35.35,.37-35.35-35.41V58.31Z" fill="#002346"></path>
    </g>
    <g>
      <g>
        <rect x="409.59" y="71.55" width="47" height="5" fill="#e6e7e8"></rect>
        <path d="M457.09,77.05h-48v-6h48v6Zm-47-1h46v-4h-46v4Z" fill="#002346"></path>
      </g>
      <g>
        <rect x="409.59" y="82.05" width="47" height="5" fill="#e6e7e8"></rect>
        <path d="M457.09,87.55h-48v-6h48v6Zm-47-1h46v-4h-46v4Z" fill="#002346"></path>
      </g>
      <g>
        <rect x="409.59" y="92.05" width="47" height="5" fill="#e6e7e8"></rect>
        <path d="M457.09,97.55h-48v-6h48v6Zm-47-1h46v-4h-46v4Z" fill="#002346"></path>
      </g>
    </g>
    <g>
      <rect x="388.09" y="110.05" width="52" height="28" fill="#1358f1"></rect>
      <path d="M440.59,138.55h-53v-29h53v29Zm-52-1h51v-27h-51v27Z" fill="#002346"></path>
    </g>
    <g>
      <path d="M398.34,130.01c-.24-.24-.36-.54-.36-.92s.12-.68,.36-.92c.24-.24,.55-.36,.92-.36s.68,.12,.91,.36c.23,.24,.35,.55,.35,.92s-.12,.68-.36,.92c-.24,.24-.54,.36-.9,.36s-.68-.12-.92-.36Z" fill="#002346"></path>
      <path d="M409.07,118.18c.58,.31,1.02,.75,1.34,1.32s.48,1.23,.48,1.97-.16,1.38-.49,1.94c-.32,.56-.78,1-1.38,1.31s-1.28,.46-2.06,.46h-2.88c-.06,0-.09,.03-.09,.09v4.84c0,.06-.02,.11-.06,.15-.04,.04-.09,.06-.15,.06h-1.66c-.06,0-.11-.02-.15-.06s-.06-.09-.06-.15v-12.19c0-.06,.02-.11,.06-.15,.04-.04,.09-.06,.15-.06h4.95c.76,0,1.42,.16,2,.47Zm-.83,4.77c.37-.36,.56-.83,.56-1.42s-.19-1.09-.56-1.46c-.37-.37-.86-.56-1.48-.56h-2.68c-.06,0-.09,.03-.09,.09v3.8c0,.06,.03,.09,.09,.09h2.68c.61,0,1.1-.18,1.48-.54Z" fill="#002346"></path>
      <path d="M411.71,130.27s-.06-.09-.06-.15v-12.17c0-.06,.02-.11,.06-.15,.04-.04,.09-.06,.15-.06h4.39c.85,0,1.6,.15,2.25,.45,.65,.3,1.15,.73,1.5,1.29,.35,.56,.53,1.21,.53,1.95v5.22c0,.74-.18,1.39-.53,1.95-.35,.56-.85,.99-1.5,1.29-.65,.3-1.4,.45-2.25,.45h-4.39c-.06,0-.11-.02-.15-.06Zm2.12-1.74h2.52c.64,0,1.14-.2,1.52-.6s.57-.94,.58-1.61v-4.55c0-.68-.19-1.23-.58-1.63-.38-.4-.9-.6-1.55-.6h-2.5c-.06,0-.09,.03-.09,.09v8.82c0,.06,.03,.09,.09,.09Z" fill="#002346"></path>
      <path d="M430.14,119.47s-.09,.06-.15,.06h-6.12c-.06,0-.09,.03-.09,.09v3.37c0,.06,.03,.09,.09,.09h4.12c.06,0,.11,.02,.15,.06s.06,.09,.06,.15v1.37c0,.06-.02,.11-.06,.15s-.09,.06-.15,.06h-4.12c-.06,0-.09,.03-.09,.09v5.15c0,.06-.02,.11-.06,.15s-.09,.06-.15,.06h-1.66c-.06,0-.11-.02-.15-.06s-.06-.09-.06-.15v-12.17c0-.06,.02-.11,.06-.15,.04-.04,.09-.06,.15-.06h8.08c.06,0,.11,.02,.15,.06,.04,.04,.06,.09,.06,.15v1.37c0,.06-.02,.11-.06,.15Z" fill="#002346"></path>
    </g>
  </g>
  <g>
    <path d="M221.64,181.46v1.88h-1.89v-1.88h1.89Z" fill="#fff"></path>
    <g>
      <polygon points="294.09 112.19 294.09 188.05 210.09 188.05 210.09 75.05 257.02 75.05 294.09 112.19" fill="#fff"></polygon>
      <path d="M294.59,188.55h-85V74.55h47.64l37.36,37.43v76.57Zm-84-1h83V112.39l-36.78-36.84h-46.22v112Z" fill="#002346"></path>
    </g>
    <g>
      <path d="M257.02,75.29v36.51l36.83,.38c.09,0,.13-.11,.07-.17l-36.73-36.8c-.06-.06-.17-.02-.17,.07Z" fill="#e6e7e8"></path>
      <path d="M293.86,112.68h0l-37.33-.39v-37.01c0-.24,.15-.46,.37-.55,.22-.09,.48-.04,.65,.13l36.73,36.79c.17,.18,.22,.43,.13,.66-.09,.22-.31,.36-.55,.36Zm-36.33-1.38l35.35,.37-35.35-35.42v35.05Zm-.69-35.74s0,0,0,0h0Z" fill="#002346"></path>
    </g>
    <g>
      <g>
        <rect x="228.59" y="124.55" width="47" height="5" fill="#e6e7e8"></rect>
        <path d="M276.09,130.05h-48v-6h48v6Zm-47-1h46v-4h-46v4Z" fill="#002346"></path>
      </g>
      <g>
        <rect x="228.59" y="135.05" width="47" height="5" fill="#e6e7e8"></rect>
        <path d="M276.09,140.55h-48v-6h48v6Zm-47-1h46v-4h-46v4Z" fill="#002346"></path>
      </g>
      <g>
        <rect x="228.59" y="145.05" width="47" height="5" fill="#e6e7e8"></rect>
        <path d="M276.09,150.55h-48v-6h48v6Zm-47-1h46v-4h-46v4Z" fill="#002346"></path>
      </g>
    </g>
    <g>
      <rect x="207.09" y="163.05" width="52" height="28" fill="#1358f1"></rect>
      <path d="M259.59,191.55h-53v-29h53v29Zm-52-1h51v-27h-51v27Z" fill="#002346"></path>
    </g>
    <g>
      <path d="M217.57,183.01c-.24-.24-.36-.54-.36-.92s.12-.68,.36-.92c.24-.24,.55-.36,.92-.36s.68,.12,.91,.36c.23,.24,.35,.55,.35,.92s-.12,.68-.36,.92c-.24,.24-.54,.36-.9,.36s-.68-.12-.92-.36Z" fill="#002346"></path>
      <path d="M220.55,183.27s-.02-.11,.03-.19l3.58-5.99s.02-.07,0-.11l-3.58-5.99c-.02-.07-.04-.11-.04-.13,0-.08,.06-.13,.18-.13h1.8c.13,0,.22,.05,.27,.14l2.63,4.46c.04,.07,.07,.07,.11,0l2.65-4.46c.05-.1,.13-.14,.25-.14h1.8c.08,0,.14,.02,.17,.06,.03,.04,.02,.11-.03,.19l-3.58,5.99s-.01,.07,0,.11l3.58,5.99c.02,.07,.04,.12,.04,.13,0,.08-.06,.12-.18,.12h-1.8c-.12,0-.2-.05-.25-.14l-2.65-4.45c-.04-.07-.07-.07-.11,0l-2.65,4.45c-.05,.1-.13,.14-.25,.14h-1.8c-.08,0-.14-.02-.17-.06Z" fill="#002346"></path>
      <path d="M231.31,183.27s-.06-.09-.06-.15v-12.17c0-.06,.02-.11,.06-.15,.04-.04,.09-.06,.15-.06h1.66c.06,0,.11,.02,.15,.06,.04,.04,.06,.09,.06,.15v10.49c0,.06,.03,.09,.09,.09h6.03c.06,0,.11,.02,.15,.06s.06,.09,.06,.15v1.37c0,.06-.02,.11-.06,.15s-.09,.06-.15,.06h-7.99c-.06,0-.11-.02-.15-.06Z" fill="#002346"></path>
      <path d="M242.07,183.02c-.7-.3-1.23-.72-1.61-1.26s-.57-1.18-.57-1.91v-.45c0-.06,.02-.11,.06-.15,.04-.04,.09-.06,.15-.06h1.6c.06,0,.11,.02,.15,.06,.04,.04,.06,.09,.06,.15v.34c0,.55,.25,1.01,.74,1.38,.49,.37,1.16,.55,2.02,.55,.73,0,1.28-.16,1.66-.47,.37-.31,.56-.71,.56-1.21,0-.34-.1-.62-.31-.85s-.5-.45-.87-.64c-.38-.19-.95-.43-1.7-.72-.85-.31-1.54-.61-2.07-.88-.53-.28-.97-.65-1.32-1.12-.35-.47-.53-1.06-.53-1.77,0-1.05,.38-1.89,1.15-2.5,.77-.61,1.79-.92,3.08-.92,.9,0,1.7,.16,2.39,.47,.69,.31,1.23,.75,1.61,1.3,.38,.56,.58,1.2,.58,1.94v.31c0,.06-.02,.11-.06,.15-.04,.04-.09,.06-.15,.06h-1.62c-.06,0-.11-.02-.15-.06-.04-.04-.06-.09-.06-.15v-.2c0-.56-.23-1.04-.69-1.43s-1.1-.58-1.92-.58c-.66,0-1.17,.14-1.54,.41s-.55,.67-.55,1.17c0,.36,.1,.65,.29,.88,.19,.23,.48,.43,.86,.62,.38,.19,.98,.42,1.78,.71,.85,.32,1.53,.62,2.04,.88,.51,.26,.95,.63,1.31,1.11s.55,1.06,.55,1.77c0,1.08-.4,1.94-1.2,2.57-.8,.64-1.89,.95-3.27,.95-.94,0-1.75-.15-2.45-.45Z" fill="#002346"></path>
    </g>
  </g>
  <g>
    <path d="M209.64,367.46v1.88h-1.89v-1.88h1.89Z" fill="#fff"></path>
    <g>
      <polygon points="282.09 298.19 282.09 374.05 198.09 374.05 198.09 261.05 245.02 261.05 282.09 298.19" fill="#fff"></polygon>
      <path d="M282.59,374.55h-85v-114h47.64l37.36,37.43v76.57Zm-84-1h83v-75.16l-36.78-36.84h-46.22v112Z" fill="#002346"></path>
    </g>
    <g>
      <path d="M245.02,261.38v36.42l36.73,.38c.12,0,.19-.15,.1-.24l-36.6-36.66c-.09-.09-.24-.03-.24,.1Z" fill="#e6e7e8"></path>
      <path d="M281.76,298.68h0l-37.23-.39v-36.91c0-.26,.15-.49,.39-.59,.24-.1,.51-.04,.7,.14l36.6,36.66c.18,.18,.24,.46,.14,.7-.1,.24-.33,.39-.59,.39Zm-36.23-1.38l35.35,.37-35.35-35.42v35.05Z" fill="#002346"></path>
    </g>
    <g>
      <g>
        <rect x="216.59" y="310.55" width="47" height="5" fill="#e6e7e8"></rect>
        <path d="M264.09,316.05h-48v-6h48v6Zm-47-1h46v-4h-46v4Z" fill="#002346"></path>
      </g>
      <g>
        <rect x="216.59" y="321.05" width="47" height="5" fill="#e6e7e8"></rect>
        <path d="M264.09,326.55h-48v-6h48v6Zm-47-1h46v-4h-46v4Z" fill="#002346"></path>
      </g>
      <g>
        <rect x="216.59" y="331.05" width="47" height="5" fill="#e6e7e8"></rect>
        <path d="M264.09,336.55h-48v-6h48v6Zm-47-1h46v-4h-46v4Z" fill="#002346"></path>
      </g>
    </g>
    <g>
      <rect x="195.09" y="349.05" width="52" height="28" fill="#1358f1"></rect>
      <path d="M247.59,377.55h-53v-29h53v29Zm-52-1h51v-27h-51v27Z" fill="#002346"></path>
    </g>
    <g>
      <path d="M200.18,369.01c-.24-.24-.36-.54-.36-.92s.12-.68,.36-.92c.24-.24,.55-.36,.92-.36s.68,.12,.91,.36c.23,.24,.35,.55,.35,.92s-.12,.68-.36,.92c-.24,.24-.54,.36-.9,.36s-.68-.12-.92-.36Z" fill="#002346"></path>
      <path d="M203.91,369.27s-.06-.09-.06-.15v-12.17c0-.06,.02-.11,.06-.15,.04-.04,.09-.06,.15-.06h4.39c.85,0,1.6,.15,2.25,.45,.65,.3,1.15,.73,1.5,1.29,.35,.56,.53,1.21,.53,1.95v5.22c0,.74-.18,1.39-.53,1.95-.35,.56-.85,.99-1.5,1.29-.65,.3-1.4,.45-2.25,.45h-4.39c-.06,0-.11-.02-.15-.06Zm2.12-1.74h2.52c.64,0,1.14-.2,1.52-.6s.57-.94,.58-1.61v-4.55c0-.68-.19-1.23-.58-1.63-.38-.4-.9-.6-1.55-.6h-2.5c-.06,0-.09,.03-.09,.09v8.82c0,.06,.03,.09,.09,.09Z" fill="#002346"></path>
      <path d="M215.75,368.96c-.7-.37-1.23-.88-1.61-1.56s-.57-1.45-.57-2.32v-4.1c0-.86,.19-1.63,.58-2.29s.92-1.18,1.61-1.55c.69-.37,1.48-.55,2.38-.55s1.71,.18,2.4,.55c.69,.37,1.23,.88,1.61,1.55s.58,1.43,.58,2.29v4.1c0,.88-.19,1.65-.58,2.32s-.92,1.19-1.61,1.56c-.69,.37-1.49,.55-2.4,.55s-1.7-.18-2.39-.55Zm4.21-1.95c.46-.47,.68-1.09,.68-1.85v-4.19c0-.78-.23-1.4-.68-1.87-.46-.47-1.06-.7-1.82-.7s-1.34,.23-1.8,.7c-.46,.47-.68,1.09-.68,1.87v4.19c0,.77,.23,1.39,.68,1.85s1.06,.7,1.8,.7,1.36-.23,1.82-.7Z" fill="#002346"></path>
      <path d="M225.81,368.94c-.68-.35-1.21-.85-1.58-1.48-.37-.64-.56-1.38-.56-2.21v-4.45c0-.84,.19-1.58,.56-2.21,.37-.63,.9-1.13,1.58-1.48,.68-.35,1.48-.52,2.38-.52s1.67,.17,2.36,.5c.68,.34,1.21,.81,1.58,1.42s.56,1.32,.56,2.12c0,.06-.02,.11-.06,.15-.04,.04-.09,.06-.15,.06l-1.66,.09c-.14,0-.22-.07-.22-.2,0-.71-.22-1.28-.66-1.71-.44-.43-1.02-.65-1.75-.65s-1.32,.22-1.76,.65c-.44,.43-.67,1-.67,1.71v4.59c0,.7,.22,1.26,.67,1.69,.44,.43,1.03,.65,1.76,.65s1.32-.21,1.75-.64c.44-.43,.66-.99,.66-1.7,0-.13,.07-.2,.22-.2l1.66,.07c.06,0,.11,.02,.15,.05s.06,.08,.06,.13c0,.82-.19,1.53-.56,2.15-.37,.62-.9,1.1-1.58,1.43-.68,.34-1.47,.5-2.36,.5s-1.69-.18-2.38-.53Z" fill="#002346"></path>
      <path d="M235.46,369.02c-.7-.3-1.23-.72-1.61-1.26s-.57-1.18-.57-1.91v-.45c0-.06,.02-.11,.06-.15,.04-.04,.09-.06,.15-.06h1.6c.06,0,.11,.02,.15,.06,.04,.04,.06,.09,.06,.15v.34c0,.55,.25,1.01,.74,1.38,.49,.37,1.16,.55,2.02,.55,.73,0,1.28-.16,1.66-.47,.37-.31,.56-.71,.56-1.21,0-.34-.1-.62-.31-.85s-.5-.45-.87-.64c-.38-.19-.95-.43-1.7-.72-.85-.31-1.54-.61-2.07-.88-.53-.28-.97-.65-1.32-1.12-.35-.47-.53-1.06-.53-1.77,0-1.05,.38-1.89,1.15-2.5,.77-.61,1.79-.92,3.08-.92,.9,0,1.7,.16,2.39,.47,.69,.31,1.23,.75,1.61,1.3,.38,.56,.58,1.2,.58,1.94v.31c0,.06-.02,.11-.06,.15-.04,.04-.09,.06-.15,.06h-1.62c-.06,0-.11-.02-.15-.06-.04-.04-.06-.09-.06-.15v-.2c0-.56-.23-1.04-.69-1.43s-1.1-.58-1.92-.58c-.66,0-1.17,.14-1.54,.41s-.55,.67-.55,1.17c0,.36,.1,.65,.29,.88,.19,.23,.48,.43,.86,.62,.38,.19,.98,.42,1.78,.71,.85,.32,1.53,.62,2.04,.88,.51,.26,.95,.63,1.31,1.11s.55,1.06,.55,1.77c0,1.08-.4,1.94-1.2,2.57-.8,.64-1.89,.95-3.27,.95-.94,0-1.75-.15-2.45-.45Z" fill="#002346"></path>
    </g>
  </g>
  <g>
    <path d="M334.64,290.46v1.88h-1.89v-1.88h1.89Z" fill="#fff"></path>
    <g>
      <polygon points="407.09 221.19 407.09 297.05 323.09 297.05 323.09 184.05 370.02 184.05 407.09 221.19" fill="#fff"></polygon>
      <path d="M407.59,297.55h-85v-114h47.64l37.36,37.43v76.57Zm-84-1h83v-75.16l-36.78-36.84h-46.22v112Z" fill="#002346"></path>
    </g>
    <g>
      <path d="M370.02,184.44v36.36l36.74,.38c.12,0,.18-.14,.1-.23l-36.57-36.63c-.1-.1-.27-.03-.27,.11Z" fill="#e6e7e8"></path>
      <path d="M406.77,221.68h0l-37.24-.39v-36.86c0-.27,.16-.51,.41-.61,.25-.1,.53-.05,.72,.14l36.57,36.63c.18,.18,.24,.46,.14,.69-.1,.24-.33,.39-.58,.39Zm-36.25-1.38l35.35,.37-35.35-35.42v35.05Z" fill="#002346"></path>
    </g>
    <g>
      <g>
        <rect x="341.59" y="233.55" width="47" height="5" fill="#e6e7e8"></rect>
        <path d="M389.09,239.05h-48v-6h48v6Zm-47-1h46v-4h-46v4Z" fill="#002346"></path>
      </g>
      <g>
        <rect x="341.59" y="244.05" width="47" height="5" fill="#e6e7e8"></rect>
        <path d="M389.09,249.55h-48v-6h48v6Zm-47-1h46v-4h-46v4Z" fill="#002346"></path>
      </g>
      <g>
        <rect x="341.59" y="254.05" width="47" height="5" fill="#e6e7e8"></rect>
        <path d="M389.09,259.55h-48v-6h48v6Zm-47-1h46v-4h-46v4Z" fill="#002346"></path>
      </g>
    </g>
    <g>
      <rect x="320.09" y="272.05" width="52" height="28" fill="#1358f1"></rect>
      <path d="M372.59,300.55h-53v-29h53v29Zm-52-1h51v-27h-51v27Z" fill="#002346"></path>
    </g>
    <g>
      <path d="M326.24,292.01c-.24-.24-.36-.54-.36-.92s.12-.68,.36-.92c.24-.24,.55-.36,.92-.36s.68,.12,.91,.36c.23,.24,.35,.55,.35,.92s-.12,.68-.36,.92c-.24,.24-.54,.36-.9,.36s-.68-.12-.92-.36Z" fill="#002346"></path>
      <path d="M337.32,279.79s.06,.09,.06,.15v1.38c0,.06-.02,.11-.06,.15s-.09,.06-.15,.06h-3.31c-.06,0-.09,.03-.09,.09v10.48c0,.06-.02,.11-.06,.15s-.09,.06-.15,.06h-1.66c-.06,0-.11-.02-.15-.06s-.06-.09-.06-.15v-10.48c0-.06-.03-.09-.09-.09h-3.19c-.06,0-.11-.02-.15-.06s-.06-.09-.06-.15v-1.38c0-.06,.02-.11,.06-.15,.04-.04,.09-.06,.15-.06h8.77c.06,0,.11,.02,.15,.06Z" fill="#002346"></path>
      <path d="M346.7,281.47s-.09,.06-.15,.06h-6.14c-.06,0-.09,.03-.09,.09v3.37c0,.06,.03,.09,.09,.09h4.12c.06,0,.11,.02,.15,.06s.06,.09,.06,.15v1.37c0,.06-.02,.11-.06,.15s-.09,.06-.15,.06h-4.12c-.06,0-.09,.03-.09,.09v3.47c0,.06,.03,.09,.09,.09h6.14c.06,0,.11,.02,.15,.06s.06,.09,.06,.15v1.37c0,.06-.02,.11-.06,.15s-.09,.06-.15,.06h-8.1c-.06,0-.11-.02-.15-.06s-.06-.09-.06-.15v-12.17c0-.06,.02-.11,.06-.15,.04-.04,.09-.06,.15-.06h8.1c.06,0,.11,.02,.15,.06,.04,.04,.06,.09,.06,.15v1.37c0,.06-.02,.11-.06,.15Z" fill="#002346"></path>
      <path d="M347.11,292.27s-.02-.11,.03-.19l3.58-5.99s.02-.07,0-.11l-3.58-5.99c-.02-.07-.04-.11-.04-.13,0-.08,.06-.13,.18-.13h1.8c.13,0,.22,.05,.27,.14l2.63,4.46c.04,.07,.07,.07,.11,0l2.65-4.46c.05-.1,.13-.14,.25-.14h1.8c.08,0,.14,.02,.17,.06,.03,.04,.02,.11-.03,.19l-3.58,5.99s-.01,.07,0,.11l3.58,5.99c.02,.07,.04,.12,.04,.13,0,.08-.06,.12-.18,.12h-1.8c-.12,0-.2-.05-.25-.14l-2.65-4.45c-.04-.07-.07-.07-.11,0l-2.65,4.45c-.05,.1-.13,.14-.25,.14h-1.8c-.08,0-.14-.02-.17-.06Z" fill="#002346"></path>
      <path d="M366.25,279.79s.06,.09,.06,.15v1.38c0,.06-.02,.11-.06,.15s-.09,.06-.15,.06h-3.31c-.06,0-.09,.03-.09,.09v10.48c0,.06-.02,.11-.06,.15s-.09,.06-.15,.06h-1.66c-.06,0-.11-.02-.15-.06s-.06-.09-.06-.15v-10.48c0-.06-.03-.09-.09-.09h-3.19c-.06,0-.11-.02-.15-.06s-.06-.09-.06-.15v-1.38c0-.06,.02-.11,.06-.15,.04-.04,.09-.06,.15-.06h8.77c.06,0,.11,.02,.15,.06Z" fill="#002346"></path>
    </g>
  </g>
</svg>
